<svg xmlns="http://www.w3.org/2000/svg" width="2684" height="2684" viewBox="0 0 2684 2684" version="1.1"><path d="M 670.500 196.743 C 649.336 196.909, 638.794 197.354, 637.276 198.148 C 634.084 199.816, 632.631 204.916, 633.951 209.818 C 635.252 214.648, 635.968 215.268, 643.508 218.089 C 650.340 220.645, 658.976 228.227, 664.379 236.412 C 671.319 246.926, 677.309 265.246, 681.004 287.265 C 682.954 298.884, 682.985 305.303, 683.044 720.576 C 683.085 1012.349, 682.773 1146.465, 682.028 1156.296 C 677.534 1215.664, 670.190 1251.363, 656.944 1278.235 C 651.887 1288.493, 644.360 1298, 641.295 1298 C 640.621 1298, 638.479 1299.397, 636.535 1301.104 C 633.554 1303.721, 633.001 1304.857, 633.004 1308.354 C 633.006 1310.671, 633.851 1313.884, 634.920 1315.637 C 636.457 1318.156, 637.626 1318.850, 640.859 1319.158 C 643.073 1319.369, 677.502 1319.532, 717.367 1319.521 C 789.436 1319.500, 789.867 1319.488, 792.675 1317.399 C 795.032 1315.645, 795.550 1314.450, 795.801 1310.179 C 796.182 1303.705, 794.905 1301.346, 789.942 1299.360 C 785.553 1297.604, 778.417 1290.230, 774.740 1283.651 C 765.469 1267.062, 754.367 1227.281, 751.080 1198.867 C 748.467 1176.275, 747.919 1169.276, 746.513 1140.500 C 744.642 1102.219, 744.301 942.550, 746.087 941.446 C 746.685 941.077, 747.675 941.275, 748.287 941.887 C 748.899 942.499, 749.951 943, 750.624 943 C 751.298 943, 756.495 945.195, 762.174 947.877 C 767.853 950.560, 775.200 953.522, 778.500 954.459 C 781.800 955.396, 785.847 956.591, 787.493 957.114 C 792.457 958.692, 808.955 960.468, 818 960.398 C 829.099 960.312, 846.018 958.382, 847.351 957.049 C 847.928 956.472, 849.864 956, 851.653 956 C 853.442 956, 855.940 955.597, 857.203 955.104 C 858.466 954.611, 861.525 953.635, 864 952.935 C 869.273 951.443, 887.613 942.807, 893.783 938.911 C 900.357 934.760, 905.833 930.224, 913.558 922.530 C 933.144 903.024, 943.849 884.308, 951.273 856.596 L 953.441 848.500 953.773 594.500 C 953.989 428.580, 953.747 334.258, 953.075 322.500 C 951.726 298.889, 949.112 288.486, 939.826 269.759 C 926.040 241.960, 902.077 219.226, 874.738 208.009 C 850.819 198.196, 847.923 197.646, 820 197.618 C 798.968 197.597, 784.138 198.936, 778.831 201.335 C 776.999 202.163, 774.375 203.160, 773 203.551 C 768.439 204.846, 757.021 210.115, 752.500 213.011 C 746.096 217.112, 745.991 217.154, 745.569 215.793 C 745.349 215.082, 744.932 211.569, 744.644 207.988 C 743.988 199.836, 743.325 198.103, 740.640 197.513 C 737.469 196.816, 705.668 196.467, 670.500 196.743 M 1527.833 197 C 1497.766 197.275, 1472.964 197.725, 1472.718 198 C 1469.997 201.041, 1469.171 208.086, 1471.050 212.211 C 1471.628 213.479, 1475.136 216.176, 1478.846 218.205 C 1487.305 222.831, 1491.939 226.498, 1496.880 232.477 C 1504.232 241.375, 1510.881 257.648, 1514.867 276.500 C 1518.721 294.729, 1519 300.724, 1519 365.396 C 1519 400.313, 1518.616 429.119, 1518.147 429.409 C 1517.332 429.913, 1514.942 429.336, 1507.750 426.899 C 1505.963 426.293, 1503.375 425.584, 1502 425.323 C 1500.625 425.063, 1498.600 424.471, 1497.500 424.008 C 1496.400 423.545, 1494.600 422.943, 1493.500 422.669 C 1490.963 422.038, 1485.422 420.062, 1481.349 418.335 C 1479.616 417.601, 1477.499 417, 1476.646 417 C 1475.792 417, 1473.835 416.494, 1472.297 415.875 C 1466.331 413.477, 1465.331 413.117, 1460 411.448 C 1456.975 410.501, 1453.600 409.386, 1452.500 408.969 C 1445.406 406.282, 1441.170 405, 1439.383 405 C 1438.256 405, 1437.013 404.679, 1436.621 404.287 C 1435.432 403.099, 1426.638 400.002, 1424.450 400.001 C 1423.323 400, 1421.973 399.626, 1421.450 399.169 C 1420.928 398.712, 1417.575 397.549, 1414 396.585 C 1410.425 395.621, 1403.873 393.745, 1399.441 392.416 C 1395.008 391.087, 1389.972 390, 1388.250 390 C 1386.527 390, 1384.872 389.602, 1384.571 389.115 C 1384.271 388.629, 1381.882 387.912, 1379.262 387.522 C 1376.643 387.132, 1373.938 386.350, 1373.250 385.784 C 1371.712 384.518, 1371.504 325.890, 1372.975 308.109 C 1377.092 258.333, 1390.572 228.540, 1414.175 217.048 C 1420.753 213.845, 1421.593 213.106, 1422.412 209.800 C 1423.623 204.910, 1422.117 199.872, 1418.966 198.277 C 1417.061 197.314, 1399.392 197.026, 1341.332 197.015 C 1299.989 197.007, 1265.435 197.280, 1264.545 197.621 C 1262.269 198.495, 1260 203.290, 1260 207.228 C 1260 212.216, 1262.520 214.908, 1270.743 218.708 C 1282.958 224.351, 1292.132 235.312, 1298.407 251.758 C 1302.990 263.770, 1305.480 273.465, 1307.456 287 C 1308.380 293.325, 1309.555 301.237, 1310.068 304.582 C 1311.152 311.657, 1311.228 364.597, 1310.163 370.500 L 1309.440 374.500 1292.970 374.020 C 1255.618 372.931, 1213.718 373.925, 1206.500 376.071 C 1203.189 377.055, 1193.028 378.756, 1183 380.005 C 1179.425 380.451, 1173.800 381.586, 1170.500 382.528 C 1167.200 383.470, 1163.375 384.450, 1162 384.707 C 1149.705 386.997, 1112.756 401.406, 1101.524 408.289 C 1100.438 408.955, 1097.063 411.009, 1094.024 412.853 C 1079.815 421.477, 1074.343 431.434, 1080.455 437.545 C 1083.791 440.882, 1090.858 440.915, 1096.620 437.620 C 1100.564 435.364, 1130.152 425.135, 1138.500 423.141 C 1140.700 422.615, 1145.091 421.444, 1148.258 420.539 C 1151.426 419.633, 1154.398 419.128, 1154.864 419.416 C 1155.330 419.704, 1158.363 419.325, 1161.605 418.575 C 1190.957 411.780, 1255.262 412.337, 1299.858 419.773 L 1310.216 421.500 1310.058 774.318 C 1309.970 968.369, 1309.499 1136.444, 1309.010 1147.818 C 1307.423 1184.786, 1304.877 1206.005, 1298.912 1232 C 1294.116 1252.902, 1290.999 1262.741, 1285.338 1274.849 C 1278.763 1288.909, 1275.562 1293.483, 1269.825 1297.013 C 1260.013 1303.050, 1258.303 1306.103, 1260.946 1312.863 C 1261.885 1315.263, 1263.518 1317.738, 1264.576 1318.363 C 1265.967 1319.185, 1287.015 1319.500, 1340.500 1319.500 C 1421.541 1319.500, 1419.892 1319.616, 1421.935 1313.756 C 1424.355 1306.813, 1422.575 1302.355, 1416.056 1299.028 C 1399.802 1290.736, 1384.244 1248.636, 1377.611 1195 C 1372.007 1149.679, 1371.898 1141.173, 1372.212 773.500 L 1372.500 436.500 1374.610 436.199 C 1376.823 435.883, 1386.829 438.716, 1411 446.501 C 1418.975 449.070, 1429.100 452.319, 1433.500 453.722 C 1437.900 455.124, 1444.425 457.277, 1448 458.507 C 1451.575 459.737, 1459.225 462.191, 1465 463.959 C 1470.775 465.728, 1478.200 468.037, 1481.500 469.091 C 1490.851 472.076, 1513.302 477.477, 1518.250 477.931 C 1519.471 478.043, 1519.174 1144.476, 1517.946 1157.941 C 1515.465 1185.163, 1513.208 1205.456, 1511.990 1211.500 C 1511.436 1214.250, 1510.110 1221.225, 1509.045 1227 C 1505.050 1248.650, 1496.868 1272.576, 1488.804 1286.192 C 1484.988 1292.636, 1481.563 1295.984, 1475.781 1298.923 C 1468.763 1302.490, 1466.939 1307.459, 1470.248 1314 C 1472.393 1318.240, 1472.813 1318.535, 1477.512 1319.101 C 1480.256 1319.432, 1514.754 1319.657, 1554.177 1319.601 C 1625.321 1319.501, 1625.874 1319.484, 1628.662 1317.403 C 1635.153 1312.557, 1633.659 1302.448, 1625.999 1299.383 C 1618.926 1296.553, 1610.292 1284.674, 1603.987 1269.098 C 1600.890 1261.447, 1594.860 1240.501, 1592.011 1227.500 C 1588.904 1213.324, 1584.190 1176.309, 1582.841 1155.500 C 1581.324 1132.112, 1580.403 491.988, 1581.885 491.068 C 1582.388 490.756, 1588.583 490.793, 1595.650 491.150 C 1614.670 492.113, 1641.009 492.004, 1653.500 490.911 C 1668.779 489.574, 1669.796 489.451, 1676 488.186 C 1679.025 487.569, 1685.323 486.355, 1689.995 485.487 C 1694.668 484.619, 1698.920 483.480, 1699.445 482.955 C 1699.970 482.430, 1701.291 482, 1702.379 482 C 1704.339 482, 1708.233 480.913, 1715 478.478 C 1735.413 471.132, 1752.223 461.797, 1761.384 452.721 L 1767.269 446.891 1766.699 441.377 C 1765.894 433.574, 1764.858 432.656, 1757.529 433.249 C 1753.257 433.595, 1749.426 434.795, 1744.383 437.369 C 1740.469 439.366, 1736.869 441.015, 1736.383 441.034 C 1735.898 441.053, 1733.700 441.937, 1731.500 443 C 1729.300 444.063, 1726.825 444.959, 1726 444.992 C 1725.175 445.025, 1721.141 446.165, 1717.035 447.526 C 1712.929 448.887, 1707.304 450.005, 1704.535 450.012 C 1701.766 450.018, 1697.025 450.688, 1694 451.500 C 1687.479 453.250, 1636.166 453.615, 1629.500 451.958 C 1627.300 451.412, 1620.325 450.533, 1614 450.006 C 1600.204 448.856, 1592.052 447.601, 1586 445.696 L 1581.500 444.279 1581.205 382.390 C 1580.880 314.153, 1581.742 297.143, 1586.651 275 C 1589.516 262.073, 1595.336 246.500, 1600.437 238.106 C 1605.827 229.239, 1614.405 221.271, 1622.672 217.452 C 1626.690 215.596, 1630.381 213.157, 1631.043 211.920 C 1632.586 209.037, 1631.695 201.267, 1629.578 199.147 C 1627.355 196.920, 1599.901 196.341, 1527.833 197 M 1945.277 196.926 L 1892.054 197.500 1889.777 199.778 C 1888.044 201.512, 1887.523 203.126, 1887.596 206.529 C 1887.718 212.217, 1889.648 214.371, 1897.998 218.138 C 1902.519 220.178, 1906.175 222.843, 1910 226.888 C 1923.783 241.464, 1931.225 260.722, 1936.126 294.500 C 1936.799 299.134, 1937.111 409.568, 1937.052 621.276 C 1936.953 971.062, 1937.398 945.647, 1931.070 962.809 C 1924.408 980.880, 1919.374 989.936, 1909.577 1001.483 C 1902.676 1009.617, 1898.881 1013.105, 1889.500 1019.937 C 1878.533 1027.925, 1865.429 1033.986, 1852.339 1037.126 C 1846.729 1038.472, 1826.367 1037.741, 1822 1036.037 C 1813.483 1032.713, 1811.395 1031.845, 1809.764 1030.952 C 1808.809 1030.428, 1807.528 1030, 1806.918 1030 C 1804.723 1030, 1789.340 1018.986, 1781.734 1011.969 C 1764.174 995.767, 1752.953 977.871, 1745.700 954.500 L 1743.528 947.500 1743.201 792.500 C 1742.855 628.584, 1742.899 626.690, 1747.542 603.500 C 1751.827 582.103, 1758.030 566.519, 1766.101 556.880 C 1770.845 551.214, 1780.831 543.460, 1786.585 540.976 C 1791.697 538.769, 1793.529 534.903, 1792.626 528.224 C 1792.268 525.575, 1791.247 522.951, 1790.303 522.250 C 1788.989 521.276, 1771.813 521, 1712.420 521 C 1625.041 521, 1632.057 520.215, 1631.248 530.084 C 1630.881 534.553, 1631.183 535.981, 1632.974 538.250 C 1634.168 539.763, 1635.590 541, 1636.135 541 C 1638.894 541, 1648.635 546.729, 1652.861 550.838 C 1663.481 561.164, 1670.733 576.791, 1676.553 601.886 C 1681.308 622.388, 1681.231 619.432, 1681.446 789.500 C 1681.596 908.263, 1681.959 951.624, 1682.854 957.742 C 1686.201 980.612, 1695.744 1001.219, 1711.354 1019.285 C 1714.024 1022.375, 1716.724 1025.579, 1717.354 1026.405 C 1719.283 1028.934, 1738.191 1044.832, 1743.500 1048.388 C 1750.725 1053.227, 1767.227 1062.621, 1770.069 1063.513 C 1771.406 1063.932, 1774.834 1065.339, 1777.686 1066.638 C 1780.538 1067.937, 1783.463 1069.011, 1784.186 1069.025 C 1784.909 1069.038, 1788.106 1069.921, 1791.292 1070.987 C 1803.415 1075.044, 1834.259 1079.498, 1844.391 1078.655 C 1879.591 1075.728, 1898.328 1070.054, 1929.810 1052.786 C 1932.730 1051.184, 1935.606 1050.035, 1936.200 1050.233 C 1936.972 1050.491, 1937.274 1176.378, 1937.256 1491.047 C 1937.242 1733.296, 1937.516 1936.772, 1937.865 1943.215 C 1938.371 1952.551, 1938.863 1955.291, 1940.286 1956.715 C 1941.896 1958.324, 1944.551 1958.517, 1967.240 1958.670 C 1993.458 1958.847, 1996.871 1958.385, 1998.379 1954.455 C 1998.720 1953.565, 1999.004 1586.236, 1999.010 1138.168 C 1999.017 590.029, 1999.356 318.756, 2000.049 309 C 2002.393 275.962, 2008.718 253.078, 2020.502 235 C 2026.247 226.187, 2030.116 222.754, 2040.054 217.652 L 2048.500 213.316 2048.800 207.662 C 2049.061 202.744, 2048.774 201.683, 2046.595 199.504 C 2044.120 197.029, 2043.892 197, 2027.192 197 C 2017.898 197, 2007.640 196.854, 2004.397 196.676 C 2001.154 196.498, 1974.550 196.610, 1945.277 196.926 M 677 218.284 C 677 221.211, 680.656 225.758, 681.940 224.428 C 682.434 223.918, 682.986 221.925, 683.169 220 C 683.481 216.702, 683.313 216.482, 680.250 216.187 C 677.396 215.911, 677 216.167, 677 218.284 M 704.250 216.623 C 702.741 217.279, 702.410 258, 703.914 258 C 704.417 258, 707.204 254.963, 710.107 251.250 C 713.011 247.537, 717.775 241.946, 720.693 238.824 L 726 233.148 725.985 226.324 C 725.976 222.571, 725.639 218.995, 725.235 218.378 C 724.461 217.197, 706.404 215.687, 704.250 216.623 M 1302.607 216.828 C 1302.288 217.343, 1302.858 218.830, 1303.874 220.132 C 1304.889 221.435, 1306.647 224.300, 1307.779 226.500 C 1310.285 231.371, 1311.263 229.879, 1310.807 221.881 L 1310.500 216.500 1306.843 216.195 C 1304.831 216.028, 1302.925 216.312, 1302.607 216.828 M 1331.750 216.689 C 1330.102 217.120, 1330 221.788, 1330 296.951 C 1330 387.390, 1329.100 378.959, 1338.874 380.117 C 1341.968 380.483, 1346.122 381.105, 1348.105 381.499 C 1351.334 382.140, 1351.777 381.968, 1352.342 379.857 C 1353.151 376.833, 1353.201 219.687, 1352.393 217.582 C 1351.896 216.287, 1350.130 216.021, 1342.643 216.116 C 1337.614 216.180, 1332.713 216.438, 1331.750 216.689 M 1373.750 217.080 C 1372.543 217.783, 1372 219.346, 1372 222.118 L 1372 226.136 1375.002 223.999 C 1378.991 221.158, 1380.677 218.044, 1378.853 216.888 C 1377.104 215.780, 1375.905 215.825, 1373.750 217.080 M 1513 218.461 C 1513 220.758, 1516.366 225, 1518.189 225 C 1518.635 225, 1519 222.975, 1519 220.500 C 1519 216.167, 1518.889 216, 1516 216 C 1513.479 216, 1513 216.393, 1513 218.461 M 1543 216.721 C 1541.625 216.968, 1540.172 217.482, 1539.770 217.864 C 1539.369 218.247, 1539.012 267.111, 1538.978 326.451 C 1538.924 417.458, 1539.133 434.561, 1540.309 435.738 C 1541.557 436.985, 1545.832 437.981, 1557.102 439.649 L 1560.703 440.182 1561.348 435.474 C 1562.551 426.704, 1562.096 218.821, 1560.871 217.345 C 1559.778 216.027, 1548.970 215.650, 1543 216.721 M 1582.045 217.915 C 1580.915 220.027, 1581.127 227.891, 1582.325 228.264 C 1582.740 228.394, 1584.402 226.250, 1586.019 223.500 C 1588.712 218.918, 1588.818 218.395, 1587.288 217.250 C 1584.926 215.482, 1583.233 215.697, 1582.045 217.915 M 1931.952 217.450 C 1930.351 219.048, 1930.884 221.542, 1933.314 223.826 C 1936.921 227.214, 1938 226.588, 1938 221.106 C 1938 216.490, 1937.855 216.220, 1935.452 216.356 C 1934.050 216.435, 1932.475 216.928, 1931.952 217.450 M 1958 216.960 C 1956.671 217.817, 1956.500 262.278, 1956.500 607.214 C 1956.500 821.321, 1956.847 997.349, 1957.271 998.386 C 1958.019 1000.217, 1958.101 1000.218, 1960.069 998.437 C 1965.556 993.472, 1973.122 977.076, 1976.883 962 L 1979.003 953.500 1978.752 585 L 1978.500 216.500 1969 216.246 C 1963.775 216.106, 1958.825 216.427, 1958 216.960 M 2000.655 218.829 C 1998.840 220.834, 1998.411 226.518, 2000 227.500 C 2000.550 227.840, 2001 227.554, 2001 226.864 C 2001 226.174, 2002.139 224.421, 2003.531 222.968 C 2005.132 221.297, 2005.828 219.714, 2005.424 218.663 C 2004.589 216.487, 2002.715 216.552, 2000.655 218.829 M 769.833 227.387 C 754.903 235.373, 746.079 241.206, 745.456 243.500 C 745.158 244.600, 745.046 249.703, 745.207 254.840 L 745.500 264.180 752.500 254.924 C 759.827 245.235, 772.380 231.801, 777.500 228.167 C 780.007 226.388, 780.253 225.873, 779 225.034 C 776.888 223.621, 776.863 223.627, 769.833 227.387 M 860.009 226.489 C 859.116 227.565, 859.989 228.679, 864.190 231.827 C 871.322 237.170, 882.656 249.092, 887.838 256.703 C 898.821 272.832, 907.179 296.008, 910.471 319.457 C 911.810 328.992, 912 361.290, 912 578.811 C 912 824.421, 911.976 827.418, 909.953 839.887 C 907.200 856.841, 900.973 876.108, 894.273 888.398 C 888.900 898.254, 877.586 913.776, 873.886 916.368 C 872.817 917.116, 869.840 919.702, 867.270 922.114 C 864.700 924.526, 861.853 926.950, 860.942 927.500 C 856.216 930.354, 851 934.097, 851 934.635 C 851 934.970, 851.563 934.810, 852.250 934.278 C 852.938 933.746, 855.750 932.717, 858.500 931.991 C 863.265 930.734, 877.284 924.502, 881.470 921.781 C 904.995 906.488, 918.474 889.837, 926.934 865.617 C 934.088 845.140, 933.500 871.018, 933.500 576.500 C 933.500 321.626, 933.429 311.233, 931.646 304.521 C 925.791 282.481, 917.706 267.909, 902.590 252.151 C 891.802 240.904, 881.245 233.758, 865.319 226.924 C 861.821 225.423, 860.953 225.352, 860.009 226.489 M 809.702 238.009 C 799.178 240.320, 789.539 245.162, 781.260 252.295 C 773.542 258.944, 770.397 262.713, 764.762 272.065 C 755.589 287.290, 749.788 303.305, 747.292 320.303 C 745.607 331.770, 745.500 347.261, 745.500 579 C 745.500 811.886, 745.600 826.120, 747.306 836.729 C 751.095 860.281, 761.684 883.923, 774.786 898.083 C 796.314 921.347, 820.410 926.115, 845.756 912.124 C 855.147 906.940, 867.037 895.398, 873.047 885.632 C 881.879 871.280, 889.878 847.337, 891.798 829.500 C 892.950 818.804, 892.720 332.909, 891.559 323 C 889.857 308.481, 884.735 292.950, 876.495 277.329 C 865.280 256.067, 851.992 245.002, 830 238.610 C 821.144 236.036, 818.977 235.972, 809.702 238.009 M 720.186 271.681 C 713.608 282.945, 710.946 289.537, 705.320 308.500 C 703.636 314.174, 703.523 328.554, 703.241 573 C 703.053 735.410, 703.302 834.491, 703.910 839.548 C 704.442 843.974, 706.284 851.986, 708.004 857.353 C 712.453 871.243, 722.398 890.817, 724.490 889.802 C 725.257 889.429, 725.496 266.163, 724.730 265.396 C 724.427 265.093, 722.382 267.921, 720.186 271.681 M 1331 402.491 C 1331 404.801, 1331.360 405, 1335.535 405 C 1338.030 405, 1341.145 405.704, 1342.459 406.565 C 1343.880 407.496, 1346.397 408.002, 1348.674 407.815 C 1351.981 407.543, 1352.542 407.138, 1352.809 404.829 C 1353.148 401.895, 1354.354 402.218, 1336.750 400.533 C 1331.132 399.995, 1331 400.040, 1331 402.491 M 1372.698 407.636 C 1370.107 410.227, 1373.649 414.512, 1379 415.260 C 1382.462 415.744, 1387.874 417.457, 1391.236 419.134 C 1392.191 419.610, 1393.766 419.998, 1394.736 419.995 C 1396.617 419.990, 1405.347 422.658, 1408.236 424.121 C 1409.191 424.604, 1410.751 425, 1411.703 425 C 1413.211 425, 1417.543 426.343, 1424.500 428.966 C 1425.600 429.380, 1429.200 430.537, 1432.500 431.537 C 1435.800 432.536, 1438.928 433.724, 1439.450 434.177 C 1439.972 434.630, 1441.633 435, 1443.141 435 C 1444.649 435, 1446.139 435.415, 1446.452 435.923 C 1446.766 436.431, 1448.466 437.163, 1450.229 437.550 C 1451.992 437.937, 1454.124 438.607, 1454.967 439.038 C 1457.504 440.336, 1484.761 448.878, 1493 450.956 C 1497.837 452.177, 1500.425 452.908, 1509 455.476 C 1517.693 458.080, 1518.453 457.987, 1518.811 454.284 C 1519.083 451.465, 1518.775 450.994, 1516.311 450.465 C 1514.765 450.133, 1512.424 449.424, 1511.109 448.888 C 1509.795 448.353, 1505.295 447.065, 1501.109 446.027 C 1494.605 444.414, 1475.479 438.442, 1465.500 434.908 C 1460.516 433.144, 1439.059 426.151, 1430 423.340 C 1425.325 421.889, 1419.925 420.077, 1418 419.314 C 1413.598 417.568, 1394.395 412.323, 1380.500 409.072 C 1378.300 408.557, 1375.801 407.866, 1374.948 407.537 C 1374.094 407.207, 1373.082 407.252, 1372.698 407.636 M 1330.463 427.250 C 1330.202 427.938, 1330.104 624.250, 1330.244 863.500 L 1330.500 1298.500 1340.761 1298.785 C 1350.653 1299.060, 1351.054 1298.988, 1351.890 1296.785 C 1352.376 1295.506, 1352.701 1104.155, 1352.629 862.021 L 1352.500 429.542 1343.500 427.831 C 1332.454 425.731, 1331.063 425.669, 1330.463 427.250 M 1539.171 459.624 C 1539.479 462.315, 1539.821 462.520, 1544.500 462.810 C 1547.250 462.980, 1549.928 463.543, 1550.450 464.060 C 1550.973 464.577, 1553.560 465, 1556.200 465 C 1564.009 465, 1561.826 461.933, 1553 460.503 C 1550.525 460.102, 1548.050 459.415, 1547.500 458.976 C 1546.950 458.538, 1544.777 457.857, 1542.671 457.463 C 1538.907 456.760, 1538.848 456.796, 1539.171 459.624 M 1539.698 483.636 C 1539.314 484.019, 1539 667.422, 1539 891.198 C 1539 1277.748, 1539.087 1298.099, 1540.750 1298.781 C 1543.503 1299.912, 1558.779 1299.623, 1559.983 1298.418 C 1560.755 1297.645, 1561.098 1181.337, 1561.179 892.540 C 1561.277 546.932, 1561.090 487.637, 1559.897 487.011 C 1559.129 486.608, 1554.929 485.720, 1550.564 485.037 C 1546.200 484.354, 1542.126 483.602, 1541.512 483.366 C 1540.898 483.131, 1540.082 483.252, 1539.698 483.636 M 1675.773 542.212 C 1674.223 543.378, 1674.200 543.785, 1675.538 546.500 C 1676.351 548.150, 1678.135 550.850, 1679.504 552.500 L 1681.992 555.500 1681.746 548.500 C 1681.530 542.352, 1681.256 541.465, 1679.493 541.212 C 1678.389 541.054, 1676.715 541.504, 1675.773 542.212 M 1704.500 541.695 C 1703.400 541.970, 1702.162 542.511, 1701.748 542.899 C 1701.335 543.287, 1700.948 635.605, 1700.890 748.052 L 1700.783 952.500 1703.393 962.500 C 1711.425 993.283, 1731.816 1017.612, 1766.907 1038.280 C 1776.095 1043.692, 1783.037 1046.558, 1795.500 1050.086 C 1798.282 1050.874, 1798.355 1050.832, 1796.500 1049.502 C 1795.400 1048.713, 1793.841 1047.490, 1793.035 1046.784 C 1792.229 1046.078, 1789.529 1044.206, 1787.035 1042.625 C 1784.541 1041.044, 1782.275 1039.448, 1782 1039.078 C 1781.725 1038.709, 1778.575 1036.178, 1775.001 1033.453 C 1771.426 1030.729, 1765.413 1025.350, 1761.638 1021.500 C 1743.054 1002.546, 1732.693 982.785, 1725.723 953 L 1723.500 943.500 1723.500 742.500 L 1723.500 541.500 1715 541.348 C 1710.325 541.264, 1705.600 541.421, 1704.500 541.695 M 1744.250 541.644 C 1743.481 541.965, 1743 544.135, 1743 547.280 L 1743 552.392 1746.539 548.962 C 1750.417 545.203, 1750.866 541.629, 1747.500 541.310 C 1746.400 541.206, 1744.938 541.356, 1744.250 541.644 M 1075 686.071 C 1069.225 686.418, 1062.925 687.177, 1061 687.759 C 1049.166 691.332, 1046.084 692.494, 1041.073 695.275 C 1026.619 703.294, 1016.093 713.088, 1006.943 727.032 C 992.347 749.274, 987.496 767.859, 987.504 801.500 C 987.509 820.509, 988.670 826.806, 994.202 837.827 C 997.861 845.117, 1004.066 851.141, 1012.407 855.500 C 1017.690 858.261, 1018.959 858.500, 1028.324 858.500 C 1037.534 858.500, 1039.062 858.224, 1044.421 855.593 C 1061.154 847.377, 1070 830.745, 1070 807.502 C 1070 792.114, 1062.449 775.038, 1052.479 767.877 C 1050.079 766.154, 1047.876 764.118, 1047.582 763.353 C 1046.178 759.694, 1057.377 738.821, 1064.210 732.360 C 1073.589 723.494, 1081.729 720.960, 1094.354 722.977 C 1116.613 726.533, 1131.391 745.644, 1139.220 781 C 1141.196 789.927, 1141.348 794.074, 1141.738 849.750 C 1142.099 901.280, 1141.962 909, 1140.689 909 C 1139.884 909, 1135.462 907.031, 1130.863 904.625 C 1126.263 902.219, 1120.025 899.458, 1117 898.489 C 1113.975 897.520, 1110.600 896.408, 1109.500 896.019 C 1101.678 893.253, 1096.746 892, 1093.681 892 C 1091.728 892, 1089.013 891.575, 1087.648 891.056 C 1084.147 889.725, 1050.949 889.429, 1048.486 890.707 C 1047.394 891.274, 1043.575 891.984, 1040 892.285 C 1034.034 892.788, 1017.920 897.362, 1013.399 899.836 C 1012.355 900.408, 1008.125 902.519, 1004 904.529 C 982.781 914.866, 958.774 939.501, 946.525 963.506 C 939.737 976.808, 934.477 995.230, 933.420 1009.397 C 933.128 1013.303, 932.719 1041.250, 932.511 1071.500 C 932.122 1127.824, 930.923 1166.087, 929.155 1178.500 C 928.607 1182.350, 927.645 1189.775, 927.018 1195 C 922.194 1235.158, 911.115 1272.849, 899.239 1289.500 C 895.384 1294.905, 893.692 1296.346, 887.529 1299.468 C 884.338 1301.084, 883.292 1302.318, 882.419 1305.496 C 881.167 1310.057, 882.062 1315.491, 884.462 1317.891 C 885.929 1319.358, 901.948 1319.500, 1065.786 1319.500 C 1164.629 1319.500, 1246.767 1319.146, 1248.316 1318.714 C 1253.173 1317.359, 1255.722 1307.904, 1252.479 1303.273 C 1251.642 1302.079, 1248.755 1299.903, 1246.063 1298.438 C 1240.524 1295.423, 1234.606 1288.109, 1229.526 1278 C 1220.921 1260.875, 1210.719 1221.289, 1208.523 1196.500 C 1208.182 1192.650, 1207.481 1186.575, 1206.964 1183 C 1206.447 1179.425, 1205.344 1166.401, 1204.512 1154.058 C 1203.254 1135.388, 1202.999 1102.106, 1202.992 956.058 C 1202.984 779.090, 1202.800 769.098, 1199.345 757.031 C 1197.328 749.989, 1190.841 736.460, 1186.816 730.905 C 1182.753 725.295, 1171.236 713.976, 1164.618 709.087 C 1153.180 700.638, 1126.925 689, 1119.301 689 C 1118.170 689, 1115.727 688.384, 1113.872 687.630 C 1109.818 685.984, 1089.808 685.181, 1075 686.071 M 1048.212 716.015 C 1043.536 718.531, 1038.011 722.381, 1034.354 725.670 C 1029.786 729.778, 1021.400 741.265, 1017.886 748.225 C 1014.253 755.422, 1014.836 756.534, 1022.187 756.424 C 1028.047 756.337, 1029.057 755.391, 1031.610 747.601 C 1034.226 739.617, 1040.683 727.372, 1044.726 722.729 C 1046.751 720.403, 1049.295 717.487, 1050.378 716.250 C 1052.649 713.657, 1052.602 713.652, 1048.212 716.015 M 1130.602 718.250 C 1146.161 734.707, 1154.241 752.783, 1158.652 781 C 1159.810 788.407, 1160.235 804.603, 1160.582 854.500 C 1160.827 889.700, 1161.021 920.417, 1161.013 922.760 C 1161.001 926.651, 1161.599 927.666, 1167.914 934.476 C 1171.716 938.577, 1176.292 943.973, 1178.083 946.466 C 1179.874 948.960, 1181.713 951, 1182.170 951 C 1182.626 951, 1182.995 910.388, 1182.989 860.750 C 1182.977 761.042, 1183.373 767.475, 1176.384 753.331 C 1170.377 741.174, 1155.818 727.047, 1142 719.967 C 1130.987 714.325, 1130.246 714, 1128.387 714 C 1126.996 714, 1127.503 714.972, 1130.602 718.250 M 1012 778.306 C 1009.018 779.323, 1008.327 780.166, 1007.330 784 C 1005.841 789.730, 1005.672 810.371, 1007.060 816.846 C 1008.451 823.330, 1013.628 831.847, 1017.941 834.745 C 1021.757 837.310, 1025.741 838.592, 1026.753 837.581 C 1027.116 837.218, 1026.551 832.776, 1025.498 827.710 C 1023.940 820.213, 1023.605 814.641, 1023.698 797.750 L 1023.812 777 1019.656 777.056 C 1017.370 777.087, 1013.925 777.650, 1012 778.306 M 1043 804.935 C 1043 813.149, 1043.469 821.105, 1044.043 822.614 L 1045.087 825.358 1047.115 823.330 C 1051.723 818.722, 1052.357 804.774, 1048.363 795.875 C 1043.980 786.107, 1043 787.762, 1043 804.935 M 745 903.813 L 745 913.937 750.255 917.718 C 755.520 921.506, 757.190 922.508, 766.500 927.466 C 772.035 930.413, 782.980 934.353, 783.682 933.651 C 783.929 933.404, 782.414 931.932, 780.316 930.380 C 771.239 923.668, 760.526 913.156, 755.085 905.622 C 751.859 901.155, 748.270 896.643, 747.109 895.595 L 745 893.690 745 903.813 M 703.667 899.667 C 702.834 900.499, 702.775 1295.249, 703.607 1297.418 C 704.104 1298.712, 706.003 1299, 714.048 1299 C 720.480 1299, 724.132 1298.595, 724.605 1297.829 C 725.003 1297.186, 725.387 1213.148, 725.458 1111.079 C 725.556 968.726, 725.307 924.918, 724.388 923 C 723.729 921.625, 721.982 919.375, 720.506 918 C 719.031 916.625, 714.878 911.788, 711.279 907.250 C 707.680 902.712, 704.645 899, 704.534 899 C 704.424 899, 704.033 899.300, 703.667 899.667 M 1021.500 920.432 C 999.753 928.892, 977.528 949.343, 965.081 972.350 C 959.990 981.760, 954.120 1000.810, 952.942 1011.744 C 952.259 1018.082, 952.008 1053.384, 952.227 1112.500 L 952.563 1203.500 954.850 1211.500 C 966.016 1250.564, 988.204 1275.657, 1026.500 1292.531 C 1028.150 1293.258, 1030.850 1294.069, 1032.500 1294.333 C 1034.150 1294.597, 1036.625 1295.142, 1038 1295.543 C 1040.040 1296.139, 1039.855 1295.832, 1037 1293.877 C 1035.075 1292.560, 1032.363 1290.978, 1030.973 1290.364 C 1029.583 1289.749, 1027.333 1288.311, 1025.973 1287.168 C 1024.613 1286.024, 1020.395 1282.509, 1016.601 1279.356 C 998.467 1264.285, 983.342 1234.476, 977.604 1202.500 C 974.462 1184.991, 974 1172.214, 974.010 1103.144 C 974.022 1020.553, 974.563 1013.041, 982.481 985.500 C 985.886 973.654, 991.633 961.744, 999.760 949.689 C 1006.242 940.075, 1019.707 925.688, 1025.883 921.777 C 1028.752 919.961, 1030.040 917.932, 1028.250 918.049 C 1027.838 918.076, 1024.800 919.148, 1021.500 920.432 M 1110.500 922.626 C 1122.904 933.225, 1128.173 938.567, 1133.768 946.219 C 1137.300 951.049, 1140.597 955, 1141.095 955 C 1142.315 955, 1142.254 940.343, 1141.024 938.046 C 1139.148 934.539, 1121.099 923.031, 1117.378 922.968 C 1116.345 922.951, 1114.626 922.276, 1113.559 921.468 C 1112.491 920.661, 1110.691 920.014, 1109.559 920.032 C 1107.717 920.060, 1107.816 920.334, 1110.500 922.626 M 1049.676 934.450 C 1027.020 942.446, 1006.803 969.009, 998.646 1001.500 C 994.179 1019.289, 994 1023.277, 994 1104.898 C 994 1167.946, 994.278 1184.623, 995.471 1193.076 C 997.809 1209.639, 1000.454 1217.666, 1010.108 1237.500 C 1019.430 1256.649, 1032.852 1269.266, 1052.653 1277.491 C 1056.035 1278.896, 1059.005 1279.137, 1068.653 1278.788 C 1079.526 1278.394, 1081.068 1278.088, 1087.411 1275.064 C 1115.144 1261.843, 1129.861 1240.234, 1139.215 1199 C 1141.300 1189.808, 1141.382 1187.021, 1141.738 1113 C 1142.172 1022.988, 1141.819 1016.856, 1134.928 994.729 C 1129.337 976.774, 1121.118 962.692, 1108.798 949.956 C 1098.929 939.755, 1090.369 935.280, 1077.135 933.404 C 1063.352 931.451, 1057.549 931.672, 1049.676 934.450 M 1160.556 1002.250 C 1160.176 1024.938, 1159.986 1076.800, 1160.134 1117.500 C 1160.398 1189.838, 1160.355 1191.759, 1158.232 1203.035 C 1154.113 1224.912, 1145.909 1245.315, 1134.704 1261.546 C 1125.644 1274.670, 1109.367 1289.024, 1098.300 1293.648 C 1093.226 1295.768, 1094.709 1296.188, 1100.536 1294.281 C 1111.413 1290.722, 1122.873 1285.654, 1130 1281.252 C 1134.125 1278.704, 1137.725 1276.344, 1138 1276.007 C 1138.275 1275.670, 1140.300 1274.099, 1142.500 1272.515 C 1152.156 1265.565, 1161.980 1253.572, 1170.081 1238.847 C 1174.355 1231.078, 1180.304 1212.635, 1181.891 1202.231 C 1182.642 1197.308, 1183 1165.309, 1183 1103.047 C 1183 1003.426, 1183.137 1006.235, 1177.428 989.162 C 1173.735 978.116, 1164.339 961, 1161.969 961 C 1161.572 961, 1160.936 979.563, 1160.556 1002.250 M 1930.245 1007.750 C 1923.491 1017.358, 1905.928 1034.556, 1896.284 1041.006 C 1884.230 1049.067, 1885.362 1050.324, 1899.430 1044.501 C 1909.258 1040.433, 1912.578 1038.627, 1923.612 1031.350 C 1928.074 1028.407, 1932.166 1026, 1932.707 1026 C 1933.248 1026, 1934.547 1025.051, 1935.595 1023.891 C 1937.211 1022.102, 1937.500 1020.205, 1937.500 1011.391 C 1937.500 1003.722, 1937.171 1001.001, 1936.245 1001 C 1935.554 1001, 1932.854 1004.038, 1930.245 1007.750 M 1977.494 1008.765 C 1976.941 1009.169, 1975.161 1011.300, 1973.538 1013.500 C 1971.915 1015.700, 1967.952 1020.581, 1964.731 1024.348 C 1961.511 1028.114, 1958.342 1032.389, 1957.688 1033.848 C 1956.778 1035.880, 1956.433 1140.984, 1956.213 1483.500 C 1956.055 1729.350, 1956.300 1932.300, 1956.756 1934.500 L 1957.586 1938.500 1968.293 1938.784 L 1979 1939.068 1979 1473.534 C 1979 1217.490, 1978.888 1008.007, 1978.750 1008.015 C 1978.612 1008.024, 1978.047 1008.361, 1977.494 1008.765 M 1177.416 1264.705 C 1172.881 1271.311, 1159.272 1285.361, 1150.301 1292.699 C 1146.892 1295.487, 1144.344 1298.011, 1144.640 1298.307 C 1145.742 1299.409, 1181.827 1299.090, 1182.518 1297.971 C 1183.453 1296.459, 1184.103 1270.677, 1183.369 1264.250 C 1183.039 1261.362, 1182.446 1259, 1182.051 1259 C 1181.656 1259, 1179.570 1261.567, 1177.416 1264.705 M 952.444 1262.285 C 952.173 1262.992, 952.074 1271.429, 952.225 1281.035 L 952.500 1298.500 968 1298.796 C 983.302 1299.087, 990 1298.597, 990 1297.186 C 990 1296.789, 988.837 1295.757, 987.415 1294.895 C 984.092 1292.878, 965.545 1274.579, 962.183 1270 C 958.542 1265.040, 954.770 1261, 953.782 1261 C 953.317 1261, 952.715 1261.578, 952.444 1262.285 M 1307.107 1273.285 C 1305.791 1277.203, 1302.978 1284.078, 1300.857 1288.563 C 1298.736 1293.048, 1297 1297.343, 1296.999 1298.109 C 1296.998 1299.209, 1298.409 1299.395, 1303.749 1299 L 1310.500 1298.500 1310.777 1283.709 C 1310.929 1275.575, 1310.704 1268.299, 1310.277 1267.540 C 1309.764 1266.630, 1308.688 1268.581, 1307.107 1273.285 M 744.874 1277.250 C 744.525 1300.113, 744.202 1299.005, 751.219 1298.985 C 758.398 1298.964, 759.328 1298.256, 757.851 1293.934 C 757.206 1292.045, 755.458 1288.250, 753.966 1285.500 C 752.474 1282.750, 750.214 1277.912, 748.943 1274.750 C 747.672 1271.588, 746.265 1269, 745.816 1269 C 745.367 1269, 744.943 1272.713, 744.874 1277.250 M 929.956 1271.534 C 929.318 1273.165, 928.192 1276.174, 927.453 1278.221 C 926.714 1280.268, 924.280 1285.413, 922.045 1289.656 C 917.455 1298.369, 917.653 1298.960, 925.168 1298.985 C 933.231 1299.011, 933.002 1299.431, 932.985 1284.643 C 932.968 1270.596, 931.985 1266.341, 929.956 1271.534 M 1372.222 1283.508 L 1372.500 1298.500 1376.920 1298.816 C 1379.351 1298.989, 1382.414 1298.862, 1383.727 1298.532 C 1386.628 1297.804, 1386.577 1297.601, 1379.731 1282.500 C 1372.133 1265.740, 1371.893 1265.772, 1372.222 1283.508 M 1581.527 1270.070 C 1581.204 1270.912, 1581.065 1277.653, 1581.220 1285.050 L 1581.500 1298.500 1586.831 1298.805 C 1589.797 1298.975, 1592.768 1298.608, 1593.527 1297.978 C 1595.118 1296.657, 1594.711 1295.319, 1589.280 1284 C 1587.301 1279.875, 1584.879 1274.709, 1583.898 1272.520 C 1582.650 1269.736, 1581.937 1268.999, 1581.527 1270.070 M 680.526 1273.500 C 679.568 1275.700, 676.760 1281.929, 674.284 1287.342 C 671.391 1293.668, 670.128 1297.528, 670.749 1298.149 C 671.280 1298.680, 674.141 1298.976, 677.107 1298.807 L 682.500 1298.500 683.257 1287.858 C 683.673 1282.006, 683.621 1275.481, 683.141 1273.358 L 682.268 1269.500 680.526 1273.500 M 1517.545 1271.942 C 1517.062 1273.285, 1514.245 1279.317, 1511.286 1285.347 C 1508.326 1291.377, 1506.137 1296.916, 1506.421 1297.655 C 1507.123 1299.483, 1517.862 1299.523, 1518.562 1297.700 C 1518.836 1296.984, 1518.918 1290.347, 1518.742 1282.950 C 1518.523 1273.704, 1518.149 1270.263, 1517.545 1271.942 M 1203.222 1284.750 L 1203.500 1298.500 1209.090 1298.795 C 1217.691 1299.249, 1217.769 1298.498, 1210.651 1283.798 C 1207.268 1276.812, 1204.150 1271.075, 1203.722 1271.048 C 1203.294 1271.022, 1203.069 1277.188, 1203.222 1284.750 M 1472.780 1365.064 C 1469.946 1366.715, 1468.679 1373.295, 1470.401 1377.416 C 1471.601 1380.289, 1473.172 1381.529, 1479.288 1384.431 C 1493.891 1391.361, 1503.108 1404.399, 1510.443 1428.500 C 1515.547 1445.271, 1515.698 1445.954, 1517.506 1460.500 C 1518.975 1472.326, 1519.089 1511.698, 1518.761 1896.500 C 1518.563 2129.150, 1518.113 2321.075, 1517.761 2323 C 1517.408 2324.925, 1516.867 2330.550, 1516.557 2335.500 C 1513.545 2383.651, 1502.899 2428.721, 1489.019 2452.085 C 1485.176 2458.554, 1478.865 2465, 1476.376 2465 C 1475.733 2465, 1473.811 2466.591, 1472.104 2468.535 C 1468.383 2472.772, 1467.987 2477.826, 1470.989 2482.750 L 1472.971 2486 1550.413 2486 L 1627.855 2486 1629.814 2483.509 C 1632.521 2480.069, 1633.398 2474.604, 1631.786 2471.236 C 1631.048 2469.695, 1628.298 2467.331, 1625.488 2465.823 C 1615.534 2460.481, 1608.734 2449.828, 1601.080 2427.590 C 1597.765 2417.956, 1596.166 2412.024, 1591.047 2390.367 C 1589.879 2385.425, 1586.510 2362.272, 1585.027 2349 C 1582.352 2325.054, 1581.684 2301.434, 1581.299 2217.381 L 1580.892 2128.261 1583.196 2127.644 C 1584.463 2127.305, 1617.514 2127.021, 1656.643 2127.014 C 1720.602 2127.001, 1727.847 2127.160, 1728.393 2128.582 C 1729.427 2131.277, 1729.060 2283.379, 1727.966 2305.546 C 1725.624 2352.995, 1721.980 2380.890, 1714.323 2410 C 1709.581 2428.026, 1706.761 2435.694, 1700.761 2446.873 C 1695.573 2456.539, 1690.429 2462.509, 1683.245 2467.202 C 1680.124 2469.241, 1678.948 2470.758, 1678.455 2473.387 C 1677.657 2477.642, 1679.501 2483.663, 1682.014 2485.008 C 1683.194 2485.639, 1711.491 2486, 1759.823 2486 C 1845.509 2486, 1839.578 2486.565, 1840.687 2478.300 C 1841.591 2471.554, 1840.492 2469.105, 1835.585 2466.934 C 1833.197 2465.878, 1829.378 2463.099, 1827.097 2460.757 C 1816.676 2450.061, 1805.341 2419.566, 1799.124 2385.500 C 1796.533 2371.299, 1795.562 2363.441, 1791.836 2326.500 C 1790.276 2311.026, 1789.441 1500.491, 1790.961 1476.568 C 1792.630 1450.293, 1797.593 1428.942, 1806.202 1411 C 1810.541 1401.956, 1812.333 1399.431, 1819.131 1392.786 C 1824.916 1387.130, 1828.129 1384.773, 1831.169 1383.954 C 1833.450 1383.340, 1836.653 1381.501, 1838.287 1379.867 C 1840.994 1377.160, 1841.202 1376.479, 1840.633 1372.198 C 1839.454 1363.337, 1846.058 1364, 1758.946 1364 L 1682.113 1364 1680.557 1366.223 C 1678.796 1368.736, 1678.483 1376.166, 1680.018 1379.033 C 1680.577 1380.079, 1684.012 1382.312, 1687.650 1383.996 C 1700.599 1389.990, 1712.857 1406.001, 1719.041 1425 C 1722.170 1434.611, 1725.428 1449.575, 1727.098 1462 C 1727.928 1468.176, 1728.302 1550.195, 1728.465 1762 C 1728.588 1922.325, 1728.489 2054.682, 1728.244 2056.126 C 1727.467 2060.714, 1720.317 2061.205, 1663 2060.604 C 1608.874 2060.037, 1584.559 2059.429, 1582.369 2058.588 C 1581.215 2058.145, 1581 2012.998, 1581 1771.041 C 1581 1518.216, 1581.186 1482.200, 1582.560 1468.759 C 1587.114 1424.201, 1600.367 1395.151, 1620.575 1385.432 C 1624.628 1383.483, 1628.856 1380.727, 1629.972 1379.309 C 1632.648 1375.906, 1632.628 1370.068, 1629.927 1366.635 L 1627.855 1364 1551.177 1364.030 C 1501.788 1364.050, 1473.888 1364.418, 1472.780 1365.064 M 1029.500 1378.976 C 1015.935 1379.635, 999.531 1381.429, 992.236 1383.052 C 989.890 1383.573, 986.065 1384, 983.736 1384.001 C 979.244 1384.002, 966.905 1386.325, 962.501 1387.999 C 961.054 1388.550, 958.469 1389, 956.756 1389 C 953.526 1389, 948.865 1390.246, 943.216 1392.620 C 941.410 1393.379, 938.929 1394, 937.702 1394 C 936.475 1394, 933.003 1394.943, 929.986 1396.097 C 926.969 1397.250, 922.925 1398.557, 921 1399.002 C 905.203 1402.653, 859.248 1423.160, 841.798 1434.345 C 838.662 1436.355, 835.796 1438, 835.429 1438 C 833.600 1438, 797.137 1463.188, 790.589 1468.975 C 766.225 1490.505, 758.819 1497.440, 749.370 1507.569 C 710.090 1549.674, 685.054 1588.253, 663.847 1639.354 C 657.614 1654.371, 649.462 1678.680, 646.862 1690 C 643.686 1703.822, 638.332 1730.889, 637.069 1739.500 C 632.483 1770.774, 632.087 1813.456, 636.104 1843.500 C 636.619 1847.350, 637.468 1854.325, 637.991 1859 C 638.515 1863.675, 640.123 1873.125, 641.565 1880 C 643.007 1886.875, 644.802 1895.564, 645.555 1899.309 C 647.637 1909.674, 655.190 1934.666, 658.609 1942.500 C 659.329 1944.150, 661.011 1948.425, 662.347 1952 C 669.348 1970.741, 682.128 1996.088, 695.120 2017 C 705.443 2033.617, 718.419 2052.462, 724.116 2059.112 C 726.655 2062.075, 732.774 2069.225, 737.714 2075 C 753.041 2092.916, 773.778 2112.871, 788.038 2123.427 C 791.084 2125.681, 794.904 2128.758, 796.528 2130.263 C 798.151 2131.768, 799.781 2133, 800.150 2133 C 800.519 2133, 803.071 2134.779, 805.822 2136.954 C 814.002 2143.419, 833.691 2156.182, 846 2162.998 C 862.196 2171.966, 883.726 2183, 885.027 2183 C 885.630 2183, 888.458 2184.069, 891.312 2185.375 C 897.276 2188.105, 916.131 2195.107, 923.500 2197.328 C 938.418 2201.825, 946.012 2203.959, 950.500 2204.914 C 953.250 2205.500, 958.454 2206.658, 962.064 2207.489 C 965.674 2208.320, 969.550 2209, 970.677 2209 C 971.803 2209, 976.500 2209.950, 981.113 2211.111 C 985.726 2212.272, 994.675 2213.613, 1001 2214.091 C 1007.325 2214.568, 1015.650 2215.395, 1019.500 2215.928 C 1028.088 2217.117, 1070.010 2217.119, 1083 2215.931 C 1109.293 2213.525, 1121.812 2211.838, 1126.315 2210.092 C 1127.863 2209.491, 1130.563 2208.987, 1132.315 2208.971 C 1134.067 2208.955, 1138.650 2208.051, 1142.500 2206.963 C 1146.350 2205.875, 1151.525 2204.557, 1154 2204.034 C 1156.475 2203.511, 1160.750 2202.426, 1163.500 2201.623 C 1166.250 2200.820, 1171.874 2199.218, 1175.998 2198.064 C 1193.765 2193.091, 1226.557 2179.571, 1247 2168.791 C 1264.454 2159.586, 1278.874 2150.610, 1299.033 2136.400 C 1335.258 2110.866, 1375.413 2068.474, 1402.184 2027.500 C 1438.703 1971.610, 1461.562 1907.154, 1467.972 1842 C 1468.594 1835.675, 1469.530 1826.645, 1470.051 1821.932 C 1471.267 1810.950, 1471.250 1799.182, 1469.988 1777.711 C 1468.043 1744.632, 1464.226 1720.510, 1455.475 1686 C 1446.984 1652.516, 1427.328 1606.216, 1410.898 1581 C 1394.745 1556.209, 1389.145 1547.895, 1385.977 1544 C 1383.964 1541.525, 1378.896 1535.225, 1374.714 1530 C 1365.315 1518.255, 1342.013 1494.304, 1328 1481.985 C 1301.719 1458.881, 1266.765 1435.740, 1235 1420.415 C 1219.082 1412.736, 1215.328 1411, 1214.639 1411 C 1214.276 1411, 1212.071 1410.161, 1209.739 1409.135 C 1207.408 1408.110, 1202.350 1406.158, 1198.500 1404.798 C 1194.650 1403.438, 1189.925 1401.763, 1188 1401.077 C 1186.075 1400.390, 1183.600 1399.604, 1182.500 1399.331 C 1181.400 1399.057, 1179.600 1398.488, 1178.500 1398.066 C 1172.098 1395.611, 1169.153 1394.698, 1166.241 1394.264 C 1164.448 1393.997, 1162.734 1393.379, 1162.432 1392.890 C 1162.129 1392.400, 1160.588 1392, 1159.006 1392 C 1157.424 1392, 1154.863 1391.511, 1153.315 1390.914 C 1150.502 1389.829, 1145.095 1388.668, 1135.306 1387.048 C 1132.450 1386.575, 1129.604 1385.873, 1128.981 1385.488 C 1127.883 1384.810, 1121.136 1383.953, 1102.500 1382.125 C 1097.550 1381.639, 1091.700 1380.781, 1089.500 1380.218 C 1084.446 1378.924, 1046.665 1378.142, 1029.500 1378.976 M 1754.750 1383.729 L 1748 1384.091 1748 1721.546 C 1748 1990.789, 1748.253 2059.020, 1749.250 2059.100 C 1753.147 2059.413, 1769.144 2059.189, 1769.517 2058.817 C 1770.169 2058.165, 1770.182 1384.849, 1769.530 1384.197 C 1768.796 1383.463, 1763.070 1383.282, 1754.750 1383.729 M 1513.450 1386.671 C 1514.198 1389.669, 1516.705 1393, 1518.212 1393 C 1518.709 1393, 1518.977 1391.088, 1518.807 1388.750 C 1518.529 1384.897, 1518.231 1384.469, 1515.622 1384.171 C 1512.918 1383.862, 1512.786 1384.013, 1513.450 1386.671 M 1539.620 1385.549 C 1538.606 1388.190, 1538.925 2056.333, 1539.940 2057.938 C 1540.650 2059.060, 1543.005 2059.318, 1550.666 2059.114 C 1556.064 2058.970, 1560.637 2058.696, 1560.828 2058.505 C 1561.019 2058.314, 1561.211 1906.585, 1561.254 1721.329 L 1561.333 1384.500 1550.786 1384.217 C 1541.832 1383.977, 1540.145 1384.179, 1539.620 1385.549 M 1581 1389.833 C 1581 1393.042, 1581.299 1395.966, 1581.665 1396.332 C 1582.469 1397.135, 1588 1387.708, 1588 1385.535 C 1588 1384.447, 1586.980 1384, 1584.500 1384 L 1581 1384 1581 1389.833 M 1722.544 1384.929 C 1721.613 1386.436, 1727.049 1395.351, 1728.198 1394.202 C 1728.710 1393.690, 1728.987 1391.298, 1728.814 1388.886 C 1728.534 1384.978, 1728.211 1384.467, 1725.844 1384.193 C 1724.384 1384.024, 1722.899 1384.355, 1722.544 1384.929 M 1789.782 1388.694 C 1789.546 1391.338, 1789.657 1394.384, 1790.028 1395.465 C 1790.617 1397.179, 1791.043 1396.892, 1793.363 1393.217 C 1794.826 1390.899, 1796.130 1387.990, 1796.261 1386.752 C 1796.458 1384.896, 1795.947 1384.446, 1793.355 1384.194 C 1790.272 1383.895, 1790.202 1383.984, 1789.782 1388.694 M 1042.250 1398.661 C 1039.600 1399.041, 1039 1399.577, 1039 1401.563 L 1039 1404 1051.031 1404 C 1061.033 1404, 1063.164 1403.736, 1063.664 1402.433 C 1063.995 1401.571, 1063.799 1400.399, 1063.228 1399.828 C 1062.109 1398.709, 1047.565 1397.899, 1042.250 1398.661 M 1000.500 1401.903 C 995 1402.882, 986.450 1404.232, 981.500 1404.904 C 976.550 1405.576, 970.700 1406.628, 968.500 1407.243 C 966.300 1407.858, 963.909 1408.253, 963.186 1408.122 C 962.464 1407.991, 959.989 1408.544, 957.686 1409.351 C 953.882 1410.685, 948.757 1412.161, 937.500 1415.162 C 935.300 1415.748, 932.600 1416.594, 931.500 1417.042 C 930.400 1417.490, 925 1419.440, 919.500 1421.376 C 882.724 1434.321, 836.047 1459.776, 811 1480.546 C 792.853 1495.595, 782.366 1510.979, 777.487 1529.710 C 775.112 1538.830, 775.533 1555.560, 778.439 1567.556 C 784.931 1594.354, 804.203 1626.850, 833.856 1661 C 846.529 1675.594, 889.738 1717.817, 907.085 1732.558 C 926.451 1749.014, 954.560 1771.672, 976.742 1788.707 C 980.175 1791.343, 985.949 1795.862, 989.575 1798.750 C 993.200 1801.638, 996.859 1804, 997.706 1804 C 999.549 1804, 1033 1780.222, 1033 1778.912 C 1033 1777.462, 1029.411 1774.260, 1025.291 1772.035 C 1023.206 1770.908, 1017 1766.823, 1011.500 1762.957 C 997.048 1752.797, 983.327 1743.434, 971.999 1736 C 966.551 1732.425, 956.560 1725.722, 949.797 1721.105 C 943.034 1716.488, 932.775 1709.540, 927 1705.666 C 914.719 1697.426, 877.891 1670.090, 863.500 1658.532 C 849.610 1647.376, 825.782 1623.368, 817.316 1612 C 796.216 1583.667, 790.127 1553.598, 800.390 1528.425 C 804.416 1518.550, 816.014 1501.916, 824.993 1493.139 C 840.540 1477.942, 861.776 1462.922, 885 1450.697 C 906.312 1439.478, 923.755 1430.836, 928 1429.393 C 930.475 1428.551, 934.408 1426.994, 936.739 1425.931 C 939.071 1424.869, 941.327 1424, 941.754 1424 C 942.181 1424, 944.098 1423.160, 946.015 1422.133 C 947.932 1421.107, 951.075 1419.965, 953 1419.595 C 954.925 1419.226, 960.100 1417.845, 964.500 1416.527 C 968.900 1415.209, 974.525 1413.657, 977 1413.079 C 979.475 1412.501, 984.425 1411.317, 988 1410.447 C 1000.388 1407.432, 1003.059 1407, 1009.323 1407 C 1016.236 1407, 1019.427 1405.471, 1018.850 1402.434 C 1018.348 1399.793, 1013.199 1399.644, 1000.500 1401.903 M 1085.323 1401.602 C 1085.052 1402.306, 1084.986 1403.697, 1085.175 1404.692 C 1085.456 1406.170, 1086.887 1406.621, 1093.010 1407.165 C 1102.888 1408.042, 1112.650 1409.742, 1114.988 1410.993 C 1116.022 1411.547, 1118.104 1412, 1119.613 1412 C 1121.123 1412, 1123.740 1412.409, 1125.429 1412.908 C 1127.118 1413.407, 1131.200 1414.585, 1134.500 1415.526 C 1137.800 1416.467, 1141.625 1417.587, 1143 1418.015 C 1144.375 1418.444, 1148.200 1419.578, 1151.500 1420.535 C 1154.800 1421.492, 1157.950 1422.600, 1158.500 1422.998 C 1159.050 1423.396, 1164.225 1425.633, 1170 1427.970 C 1199.331 1439.838, 1216.638 1449.769, 1244.500 1470.720 C 1255.266 1478.815, 1282.131 1503.476, 1289.024 1511.592 C 1306.987 1532.739, 1313.213 1540.666, 1322.727 1554.500 C 1353.302 1598.955, 1373.349 1646.019, 1385.452 1701.754 C 1395.335 1747.264, 1398.438 1802.309, 1393.443 1843.500 C 1386.131 1903.790, 1374.255 1945.223, 1350.435 1993.545 L 1341.982 2010.694 1343.967 2020.341 C 1347.138 2035.753, 1347.497 2044.182, 1345.500 2056.359 C 1344.533 2062.253, 1343.996 2067.329, 1344.305 2067.639 C 1345.103 2068.436, 1353.367 2059.351, 1364.510 2045.427 C 1396.258 2005.754, 1420.497 1958.698, 1435.816 1907 C 1440.357 1891.675, 1446.013 1865.022, 1448.336 1848 C 1450.545 1831.813, 1452.429 1795.897, 1451.649 1784.818 C 1449.962 1760.846, 1448.938 1749.105, 1448.088 1744.023 C 1444.727 1723.910, 1443.501 1717.329, 1441.378 1708 C 1435.983 1684.289, 1430.462 1667.774, 1418.982 1641 C 1403.309 1604.447, 1381.755 1569.834, 1355.157 1538.500 C 1344.758 1526.250, 1320.023 1501.632, 1309.942 1493.500 C 1305.852 1490.200, 1299.731 1485.250, 1296.341 1482.500 C 1292.951 1479.750, 1288.225 1476.164, 1285.839 1474.532 C 1277.241 1468.649, 1256.015 1455, 1255.465 1455 C 1255.157 1455, 1252.450 1453.430, 1249.450 1451.511 C 1244.179 1448.139, 1223.819 1438.061, 1211.500 1432.726 C 1208.200 1431.296, 1202.940 1428.973, 1199.812 1427.563 C 1196.683 1426.154, 1193.286 1425, 1192.262 1425 C 1191.238 1425, 1189.973 1424.590, 1189.450 1424.088 C 1187.956 1422.654, 1169.333 1415.947, 1164.165 1414.981 C 1161.599 1414.502, 1155.675 1413.015, 1151 1411.677 C 1125.382 1404.344, 1086.556 1398.388, 1085.323 1401.602 M 1039.667 1425.667 C 1039.300 1426.033, 1039 1500.655, 1039 1591.492 L 1039 1756.651 1041.250 1758.713 C 1042.487 1759.847, 1045.422 1761.739, 1047.772 1762.919 L 1052.044 1765.063 1057.772 1761.721 L 1063.500 1758.378 1064.150 1748.939 C 1064.508 1743.748, 1064.818 1668.737, 1064.840 1582.250 L 1064.879 1425 1052.606 1425 C 1045.856 1425, 1040.033 1425.300, 1039.667 1425.667 M 1009.750 1427.162 C 1008.237 1427.715, 1007 1428.482, 1007 1428.867 C 1007 1429.893, 1017.872 1440.462, 1018.391 1439.941 C 1018.790 1439.543, 1019.294 1430.315, 1019.085 1427.250 C 1018.984 1425.761, 1013.721 1425.712, 1009.750 1427.162 M 1084.667 1426.667 C 1083.812 1427.522, 1083.789 1440, 1084.642 1440 C 1086.043 1440, 1096 1430.758, 1096 1429.458 C 1096 1428.695, 1095.130 1427.605, 1094.066 1427.035 C 1091.906 1425.879, 1085.698 1425.636, 1084.667 1426.667 M 958 1439.460 C 956.625 1440.207, 953.813 1441.637, 951.750 1442.637 C 949.688 1443.637, 948.012 1444.690, 948.026 1444.977 C 948.040 1445.265, 950.340 1447.053, 953.138 1448.952 C 964.996 1456.998, 973.083 1468.220, 977.628 1482.934 C 979.986 1490.568, 980.185 1492.466, 979.727 1502.934 C 978.916 1521.465, 973.972 1535.392, 966.777 1539.417 C 961.674 1542.272, 960.411 1541.290, 955 1530.256 C 949.841 1519.736, 945.187 1513.745, 938.902 1509.533 C 920.266 1497.044, 914.559 1490.659, 910.473 1477.724 C 909.113 1473.419, 908 1468.781, 908 1467.417 C 908 1466.053, 907.332 1464.681, 906.516 1464.368 C 905.700 1464.055, 900.413 1466.385, 894.766 1469.546 C 889.120 1472.707, 882.479 1476.427, 880.008 1477.814 C 858.335 1489.976, 835.789 1509.210, 825.622 1524.212 C 818.589 1534.588, 815.843 1542.121, 815.229 1552.723 C 814.710 1561.664, 815.633 1565.639, 821.214 1578.500 C 827.676 1593.392, 843.237 1613.186, 860.222 1628.118 C 864.775 1632.120, 869.101 1635.988, 869.835 1636.711 C 874.461 1641.271, 901.422 1662.445, 909.676 1668 C 910.901 1668.825, 918.563 1674.263, 926.702 1680.084 C 934.841 1685.905, 948.250 1695.152, 956.500 1700.632 C 964.750 1706.111, 981.400 1717.298, 993.500 1725.491 C 1005.600 1733.684, 1016.339 1740.413, 1017.363 1740.444 C 1019.173 1740.498, 1019.222 1736.720, 1019.055 1609.880 C 1018.916 1504.968, 1018.623 1478.397, 1017.563 1474.880 C 1015.986 1469.648, 1009.514 1459.719, 1004.852 1455.381 C 1000.314 1451.159, 990.888 1445, 988.963 1445 C 988.104 1445, 986.973 1444.605, 986.450 1444.123 C 985.343 1443.101, 977.057 1440.471, 972 1439.537 C 964.593 1438.169, 960.418 1438.146, 958 1439.460 M 1124.500 1440.440 C 1109.424 1445.898, 1096.711 1455.464, 1090.232 1466.228 C 1083.767 1476.968, 1083.950 1472.480, 1084.239 1613.407 C 1084.382 1683.492, 1084.791 1741.124, 1085.146 1741.480 C 1085.502 1741.835, 1089.195 1739.735, 1093.355 1736.813 C 1097.514 1733.891, 1105.912 1728.125, 1112.018 1724 C 1118.124 1719.875, 1123.735 1715.938, 1124.488 1715.250 C 1125.241 1714.563, 1126.302 1714, 1126.845 1714 C 1127.389 1714, 1127.983 1713.662, 1128.167 1713.248 C 1128.490 1712.518, 1154.497 1694.904, 1156.440 1694.099 C 1156.973 1693.878, 1157.879 1693.301, 1158.454 1692.817 C 1160.690 1690.936, 1178.097 1679, 1178.605 1679 C 1178.901 1679, 1179.770 1678.438, 1180.537 1677.750 C 1183.537 1675.059, 1184.940 1674, 1185.501 1674 C 1185.824 1674, 1187.301 1672.875, 1188.783 1671.500 C 1190.266 1670.125, 1192.009 1669, 1192.656 1669 C 1193.304 1669, 1193.983 1668.659, 1194.167 1668.242 C 1194.350 1667.825, 1200.796 1662.763, 1208.491 1656.992 C 1255.664 1621.617, 1281.175 1592.284, 1287.485 1566.166 C 1289.658 1557.170, 1289.113 1547.342, 1286.108 1541.321 C 1281.989 1533.069, 1259.080 1509.873, 1239 1493.623 C 1219.386 1477.750, 1200.947 1466.039, 1197.596 1467.325 C 1196.931 1467.580, 1195.592 1470.647, 1194.621 1474.141 C 1191.210 1486.409, 1183.325 1497.270, 1173.054 1503.846 C 1159.971 1512.223, 1153.101 1519.576, 1149.464 1529.095 C 1146.460 1536.956, 1143.611 1541, 1141.077 1541 C 1138.325 1541, 1131.469 1535.559, 1130.199 1532.367 C 1126.336 1522.654, 1125 1514.329, 1125 1499.964 C 1125 1487.836, 1125.350 1484.353, 1127.083 1479.221 C 1130.829 1468.126, 1140.206 1455.863, 1149.793 1449.518 C 1152.107 1447.987, 1154 1446.344, 1154 1445.867 C 1154 1443.702, 1149.847 1441.252, 1144.423 1440.217 C 1133.565 1438.145, 1130.751 1438.176, 1124.500 1440.440 M 927.731 1462.250 C 927.040 1464.229, 929.927 1472.933, 932.629 1477.016 C 935.212 1480.919, 939.959 1485.059, 946.210 1488.858 C 948.250 1490.098, 952.059 1492.881, 954.674 1495.042 C 957.289 1497.203, 959.748 1498.640, 960.137 1498.236 C 961.121 1497.214, 959.166 1487.223, 957.262 1483.538 C 952.725 1474.761, 948.372 1470.488, 939.099 1465.713 C 929.190 1460.611, 928.388 1460.367, 927.731 1462.250 M 1166.274 1464.770 C 1157.174 1469.468, 1151.011 1475.234, 1147.567 1482.273 C 1144.899 1487.727, 1142.905 1499.004, 1144.610 1498.995 C 1145.100 1498.993, 1146.877 1497.700, 1148.560 1496.123 C 1150.242 1494.545, 1155.417 1490.546, 1160.060 1487.236 C 1164.702 1483.926, 1169.483 1480.156, 1170.683 1478.859 C 1174.385 1474.860, 1177.612 1464.012, 1175.677 1462.077 C 1174.219 1460.619, 1174.441 1460.555, 1166.274 1464.770 M 747.500 1539.717 C 743.650 1544.460, 738.461 1550.851, 735.968 1553.920 C 728.594 1562.999, 712.752 1586.634, 705.721 1599.047 C 675.071 1653.157, 659.179 1705.059, 653.416 1769.866 C 647.628 1834.947, 662.346 1908.984, 693.798 1973 C 707.312 2000.507, 720.660 2021.475, 739.092 2044.153 C 742.067 2047.812, 746.392 2053.212, 748.704 2056.153 C 752.808 2061.373, 783.541 2092.311, 791.500 2099.234 C 797.839 2104.748, 809.604 2114.284, 813.205 2116.826 C 833.945 2131.471, 842.922 2137.211, 859.773 2146.605 C 874.551 2154.843, 899.816 2166.559, 914 2171.751 C 918.675 2173.463, 925.660 2176.019, 929.521 2177.432 C 933.383 2178.844, 937.269 2180, 938.157 2180 C 939.045 2180, 941.060 2180.672, 942.636 2181.494 C 944.211 2182.315, 946.668 2182.990, 948.095 2182.994 C 949.522 2182.997, 953.347 2183.921, 956.595 2185.048 C 962.358 2187.046, 968.197 2188.224, 980.614 2189.892 C 983.976 2190.344, 987.337 2191.090, 988.082 2191.551 C 989.360 2192.340, 997.593 2193.412, 1011.751 2194.632 C 1017.617 2195.138, 1018.055 2195.027, 1018.876 2192.835 C 1019.914 2190.065, 1018.474 2189.178, 1012.764 2189.070 C 1010.710 2189.032, 1007.110 2188.560, 1004.764 2188.023 C 1000.104 2186.956, 992.560 2185.458, 984 2183.902 C 977.505 2182.721, 954.841 2176.035, 947 2172.986 C 943.975 2171.810, 939.475 2170.155, 937 2169.308 C 929.395 2166.707, 910.470 2157.777, 903.500 2153.501 C 901.300 2152.152, 897.745 2150.093, 895.601 2148.927 C 887.873 2144.725, 863.253 2127.537, 851.500 2118.139 C 815.100 2089.032, 779.472 2044.745, 756.059 1999.500 C 736.977 1962.625, 720.414 1912.755, 714.877 1875.500 C 708.589 1833.194, 706.331 1802.398, 707.985 1781.500 C 708.594 1773.800, 709.487 1762.325, 709.970 1756 C 712.812 1718.760, 723.986 1670.936, 738.475 1634 C 742.475 1623.804, 755.088 1597.500, 759.662 1589.814 L 762.451 1585.128 760.649 1576.814 C 757.524 1562.397, 756.119 1549.164, 756.723 1539.838 C 757.189 1532.650, 757.035 1531.009, 755.898 1531.047 C 755.129 1531.074, 751.350 1534.975, 747.500 1539.717 M 1306.693 1571.750 C 1306.459 1572.162, 1305.250 1575.650, 1304.007 1579.500 C 1297.447 1599.810, 1285.168 1616.651, 1258.449 1641.985 C 1253.527 1646.652, 1249.275 1650.752, 1249 1651.096 C 1244.922 1656.194, 1205.948 1685.767, 1179.500 1703.832 C 1137.712 1732.374, 1129.256 1738, 1128.146 1738 C 1127.650 1738, 1126.662 1738.702, 1125.950 1739.560 C 1125.239 1740.417, 1118.996 1744.921, 1112.078 1749.568 C 1088.904 1765.134, 1051.399 1791.750, 1026.334 1810.418 C 1015.369 1818.584, 995.930 1832.261, 973.500 1847.592 C 965.031 1853.380, 959.780 1857.055, 942.940 1868.976 C 937.198 1873.041, 929.575 1878.382, 926 1880.844 C 900.465 1898.430, 862.288 1925.938, 854.371 1932.455 C 851.001 1935.230, 843.576 1941.191, 837.871 1945.701 C 816.758 1962.397, 796.687 1984.729, 788.592 2000.532 C 785.920 2005.748, 785.344 2007.775, 786.026 2009.568 C 788.437 2015.911, 801.283 2034.432, 817.189 2054.500 C 824.222 2063.373, 861.380 2101, 863.110 2101 C 864.369 2101, 864.192 2097.457, 862.583 2090.500 C 861.821 2087.200, 860.635 2079.775, 859.948 2074 C 858.874 2064.956, 858.930 2061.836, 860.356 2051.500 C 865.972 2010.776, 877.443 1989.713, 913.208 1954.451 C 928.126 1939.742, 934.099 1934.196, 945.645 1924.333 C 946.825 1923.325, 949.975 1920.615, 952.645 1918.311 C 961.824 1910.390, 962.899 1909.488, 968.192 1905.265 C 976.237 1898.845, 989.620 1888.507, 998 1882.239 C 1002.125 1879.153, 1005.725 1876.327, 1006 1875.959 C 1006.496 1875.296, 1036.141 1854.212, 1064.998 1834 C 1073.243 1828.225, 1079.991 1823.162, 1079.994 1822.750 C 1079.997 1822.338, 1080.594 1822, 1081.320 1822 C 1082.046 1822, 1084.409 1820.498, 1086.570 1818.663 C 1088.732 1816.828, 1096.350 1811.106, 1103.500 1805.948 C 1110.650 1800.790, 1116.725 1796.301, 1117 1795.971 C 1117.422 1795.465, 1124.740 1789.890, 1135.907 1781.568 C 1139.266 1779.065, 1152.350 1768.663, 1153 1767.978 C 1153.275 1767.689, 1156.650 1765.002, 1160.500 1762.007 C 1164.350 1759.012, 1170.225 1754.298, 1173.557 1751.531 C 1176.888 1748.764, 1181.587 1744.925, 1184 1743 C 1192.252 1736.417, 1201.498 1728.545, 1205.120 1725.022 C 1207.111 1723.085, 1211.836 1718.800, 1215.620 1715.500 C 1228.035 1704.673, 1255.506 1677.896, 1267.553 1664.879 C 1275.086 1656.740, 1291.624 1635.565, 1298.883 1624.763 C 1307.924 1611.311, 1318 1591.293, 1318 1586.782 C 1318 1583.563, 1315.020 1578.052, 1310.683 1573.250 C 1308.569 1570.908, 1307.416 1570.475, 1306.693 1571.750 M 770.143 1612.750 C 767.473 1617.788, 758.280 1638.880, 754.560 1648.500 C 734.566 1700.215, 724.399 1765.909, 727.864 1821 C 731.016 1871.122, 742.030 1917.444, 761.868 1964.015 C 769.455 1981.824, 770.913 1984.753, 772.500 1985.362 C 773.227 1985.641, 776.118 1982.350, 779.430 1977.475 C 789.154 1963.160, 805.331 1945.336, 817.500 1935.529 C 826.453 1928.314, 826.434 1927.718, 817.101 1923.110 C 795.094 1912.242, 771.908 1893.766, 760.491 1878 C 754.153 1869.247, 750.512 1861.796, 747.509 1851.435 C 745.391 1844.125, 745 1840.707, 745 1829.493 C 745 1814.711, 746.386 1808.456, 752.568 1795.339 C 762.895 1773.426, 778.506 1760.076, 800.169 1754.631 C 808.583 1752.516, 811.219 1752.321, 827 1752.655 C 838.174 1752.891, 845.946 1753.516, 848.500 1754.383 C 850.700 1755.130, 854.525 1756.336, 857 1757.064 C 870.007 1760.886, 883.179 1768.963, 888.361 1776.292 C 890.707 1779.610, 891.138 1781.084, 890.755 1784.483 C 889.478 1795.812, 885.344 1797.380, 873.242 1791.128 C 852.584 1780.455, 840.299 1778.420, 819.500 1782.226 C 806.281 1784.644, 792.033 1794.758, 786.710 1805.500 C 774.198 1830.753, 782.556 1849.949, 815.500 1871.623 C 825.941 1878.492, 832.304 1881.758, 851.318 1890.009 C 861.763 1894.541, 865.790 1895.843, 867.818 1895.344 C 870.395 1894.709, 875.283 1891.506, 879.499 1887.689 C 880.600 1886.693, 884.645 1883.768, 888.488 1881.189 C 892.332 1878.610, 896.079 1875.935, 896.816 1875.243 C 897.553 1874.552, 899.066 1873.500, 900.179 1872.904 C 901.292 1872.308, 910.145 1866.225, 919.851 1859.386 C 929.558 1852.546, 938.175 1846.516, 939 1845.985 C 939.825 1845.454, 946.800 1840.607, 954.500 1835.214 C 962.200 1829.821, 970.632 1824.080, 973.238 1822.456 C 980.218 1818.108, 980.235 1817.286, 973.450 1812.410 C 971.223 1810.810, 966.723 1807.347, 963.450 1804.716 C 960.178 1802.085, 951.650 1795.371, 944.500 1789.797 C 937.350 1784.222, 928.403 1777.150, 924.617 1774.080 C 917.766 1768.526, 915.180 1766.437, 904.897 1758.150 C 901.929 1755.758, 897.025 1751.470, 894 1748.622 C 890.975 1745.773, 886.475 1741.889, 884 1739.989 C 872.669 1731.294, 822.162 1680.148, 810.512 1665.571 C 808.346 1662.860, 805.498 1659.485, 804.184 1658.071 C 801.258 1654.922, 779.893 1622.848, 777.492 1618 C 775.538 1614.054, 773.089 1611, 771.880 1611 C 771.435 1611, 770.653 1611.787, 770.143 1612.750 M 1329.846 1612.726 C 1329.017 1613.702, 1327.062 1616.750, 1325.501 1619.500 C 1318.503 1631.833, 1300.511 1656.820, 1286.478 1673.694 C 1276.167 1686.092, 1243.798 1718.954, 1228.529 1732.526 C 1223.595 1736.912, 1217.041 1742.750, 1213.963 1745.500 C 1210.885 1748.250, 1205.283 1752.975, 1201.514 1756 C 1197.744 1759.025, 1191.887 1763.975, 1188.497 1767 C 1178.839 1775.619, 1135.012 1809.634, 1127.179 1814.591 L 1123.874 1816.682 1127.460 1819.831 C 1129.433 1821.563, 1135.198 1825.761, 1140.273 1829.161 C 1145.348 1832.561, 1155.147 1839.428, 1162.048 1844.421 C 1168.949 1849.414, 1179.175 1856.650, 1184.772 1860.500 C 1201.175 1871.783, 1220.221 1885.097, 1228.095 1890.784 C 1234.341 1895.295, 1235.857 1895.973, 1238.456 1895.419 C 1240.130 1895.061, 1241.950 1894.411, 1242.500 1893.974 C 1243.050 1893.536, 1245.525 1892.405, 1248 1891.460 C 1261.577 1886.275, 1280.882 1876.510, 1292 1869.204 C 1303.646 1861.551, 1313.613 1851.334, 1318.541 1842 C 1322.221 1835.029, 1322.497 1833.936, 1322.451 1826.500 C 1322.395 1817.417, 1321.178 1813.117, 1316.315 1804.819 C 1308.489 1791.467, 1297.100 1784.354, 1278.500 1781.202 C 1263.349 1778.634, 1244.885 1782.032, 1232.263 1789.710 C 1225.608 1793.758, 1221.678 1795.207, 1218.383 1794.827 C 1216.011 1794.553, 1215.257 1793.706, 1213.743 1789.614 C 1211.433 1783.374, 1212.445 1779.945, 1218.627 1773.070 C 1225.740 1765.159, 1240.542 1757.298, 1253 1754.815 C 1255.475 1754.322, 1259.975 1753.404, 1263 1752.775 C 1273.637 1750.563, 1297.119 1751.765, 1302.684 1754.806 C 1303.886 1755.463, 1305.804 1756, 1306.948 1756 C 1308.091 1756, 1309.809 1756.398, 1310.764 1756.884 C 1311.719 1757.370, 1315.599 1759.244, 1319.387 1761.048 C 1336.847 1769.365, 1348.778 1784.773, 1356.515 1809 C 1358.759 1816.027, 1359.253 1819.493, 1359.365 1829 C 1359.720 1859.216, 1346.230 1881.815, 1312.484 1907.537 C 1306.382 1912.187, 1299.326 1916.474, 1288.100 1922.352 L 1277.865 1927.711 1280.797 1930.606 C 1282.409 1932.198, 1285.477 1934.803, 1287.614 1936.396 C 1296.239 1942.825, 1316.156 1964.557, 1323.244 1975.272 C 1327.163 1981.196, 1330.849 1985.885, 1331.435 1985.692 C 1332.728 1985.264, 1333.423 1983.892, 1340.394 1968 C 1349.501 1947.240, 1353.781 1935.726, 1358.903 1918.206 C 1368.286 1886.112, 1372.134 1865.304, 1375.495 1828.500 C 1381.253 1765.444, 1369.084 1692.379, 1342.766 1632 C 1333.173 1609.991, 1332.731 1609.331, 1329.846 1612.726 M 1100.943 1834.281 C 1091.794 1839.988, 1071 1855.455, 1071 1856.555 C 1071 1857.232, 1071.768 1858.081, 1072.706 1858.441 C 1073.645 1858.801, 1077.132 1861.120, 1080.456 1863.594 C 1083.780 1866.069, 1091.225 1871.575, 1097 1875.831 C 1136.363 1904.838, 1175.160 1937.683, 1197.995 1961.332 C 1227.258 1991.639, 1236.699 2010.115, 1243.476 2050.334 C 1244.324 2055.368, 1244.334 2076.470, 1243.491 2082.647 C 1242.628 2088.971, 1238.506 2102.799, 1235.370 2109.889 C 1230.499 2120.905, 1220.300 2134.869, 1210.757 2143.591 C 1204.795 2149.040, 1187.374 2160.827, 1182.500 2162.709 C 1180.850 2163.347, 1174.087 2166.076, 1167.472 2168.775 C 1160.857 2171.474, 1154.332 2173.949, 1152.972 2174.276 C 1151.612 2174.603, 1147.575 2175.820, 1144 2176.981 C 1134.427 2180.092, 1128.229 2181.756, 1121.500 2183.024 C 1118.200 2183.646, 1113.370 2184.776, 1110.767 2185.535 C 1108.163 2186.294, 1101.305 2187.465, 1095.527 2188.136 C 1086.655 2189.168, 1084.926 2189.656, 1084.411 2191.279 C 1084.076 2192.336, 1084.250 2193.650, 1084.799 2194.199 C 1085.870 2195.270, 1093.072 2194.820, 1102 2193.124 C 1105.025 2192.550, 1111.550 2191.567, 1116.500 2190.940 C 1121.450 2190.313, 1127.493 2189.170, 1129.928 2188.400 C 1132.364 2187.630, 1135.617 2187, 1137.157 2187 C 1138.698 2187, 1143.309 2185.875, 1147.405 2184.500 C 1151.501 2183.125, 1155.845 2182, 1157.058 2182 C 1159.286 2182, 1176.129 2176.685, 1179.118 2175.039 C 1180.007 2174.549, 1182.707 2173.625, 1185.118 2172.984 C 1187.528 2172.344, 1190.850 2171.216, 1192.500 2170.478 C 1194.150 2169.739, 1197.739 2168.400, 1200.475 2167.503 C 1203.212 2166.605, 1205.912 2165.513, 1206.475 2165.076 C 1207.039 2164.639, 1209.750 2163.465, 1212.500 2162.468 C 1215.250 2161.471, 1218.090 2160.205, 1218.812 2159.654 C 1219.533 2159.103, 1224.258 2156.568, 1229.312 2154.020 C 1238.427 2149.425, 1247.733 2144.356, 1253.500 2140.844 C 1255.150 2139.839, 1257.175 2138.714, 1258 2138.343 C 1259.436 2137.696, 1261.069 2136.641, 1272.651 2128.876 C 1288.382 2118.328, 1305.988 2100.565, 1313.263 2087.904 C 1317.673 2080.228, 1323.734 2065.687, 1325.564 2058.392 C 1331.673 2034.040, 1321.460 2002.686, 1299.052 1977 C 1284.302 1960.094, 1270.204 1947.716, 1240.629 1925.706 C 1235.608 1921.969, 1229.475 1917.371, 1227 1915.488 C 1223.334 1912.699, 1204.452 1899.369, 1189.500 1889.016 C 1187.850 1887.873, 1181.325 1883.279, 1175 1878.807 C 1168.675 1874.334, 1159.450 1867.981, 1154.500 1864.689 C 1149.550 1861.396, 1144.150 1857.497, 1142.500 1856.024 C 1140.850 1854.551, 1137.025 1851.813, 1134 1849.941 C 1130.975 1848.069, 1124.857 1843.947, 1120.405 1840.782 C 1113.819 1836.100, 1106.262 1831.867, 1104.782 1832.031 C 1104.627 1832.048, 1102.899 1833.061, 1100.943 1834.281 M 1044.363 1874.250 L 1039.500 1877.500 1039.247 2023.125 C 1039.018 2154.439, 1039.148 2168.878, 1040.563 2170.053 C 1042.753 2171.870, 1061.406 2171.991, 1063.199 2170.200 C 1064.253 2169.147, 1064.549 2141.270, 1064.760 2023.498 L 1065.020 1878.096 1062.875 1876.098 C 1059.968 1873.390, 1054.735 1871, 1051.712 1871 C 1050.345 1871, 1047.038 1872.463, 1044.363 1874.250 M 1015.913 1894.734 C 1014.586 1895.641, 1013.275 1896.638, 1013 1896.948 C 1012.725 1897.258, 1010.700 1898.831, 1008.500 1900.444 C 1006.300 1902.058, 997.178 1909.206, 988.230 1916.331 C 969.752 1931.042, 970.206 1929.197, 983.500 1935.532 C 987.900 1937.629, 993.300 1940.474, 995.500 1941.856 C 1006.304 1948.639, 1010.045 1951.196, 1013.985 1954.487 C 1016.340 1956.455, 1018.394 1957.938, 1018.547 1957.783 C 1019.193 1957.129, 1019.664 1893.910, 1019.026 1893.516 C 1018.641 1893.278, 1017.240 1893.826, 1015.913 1894.734 M 1084.616 1894.718 C 1083.726 1895.608, 1083.886 1955.273, 1084.783 1956.682 C 1085.305 1957.504, 1086.748 1956.816, 1089.506 1954.432 C 1091.691 1952.545, 1093.788 1951, 1094.168 1951 C 1094.547 1951, 1095.452 1950.437, 1096.179 1949.748 C 1097.593 1948.408, 1104.582 1943.698, 1109.500 1940.770 C 1113.297 1938.510, 1123.488 1933.608, 1127.771 1931.982 C 1129.571 1931.298, 1131.271 1930.371, 1131.549 1929.921 C 1131.827 1929.470, 1127.430 1925.480, 1121.778 1921.054 C 1116.125 1916.628, 1109.925 1911.729, 1108 1910.168 C 1101.256 1904.699, 1085.225 1894.108, 1084.616 1894.718 M 825 1902.803 C 825 1903.434, 837.492 1910.302, 843.243 1912.833 C 843.659 1913.017, 844 1912.238, 844 1911.102 C 844 1909.706, 843.192 1908.870, 841.500 1908.519 C 840.125 1908.234, 837.767 1907.739, 836.260 1907.421 C 834.753 1907.102, 833.275 1906.445, 832.975 1905.960 C 832.177 1904.668, 825 1901.827, 825 1902.803 M 1272 1904.547 C 1269.525 1905.831, 1266.915 1906.909, 1266.200 1906.941 C 1264.143 1907.034, 1259 1909.952, 1259 1911.026 C 1259 1912.933, 1262.298 1912.125, 1268 1908.820 C 1268.825 1908.341, 1271.394 1907.049, 1273.709 1905.947 C 1278.029 1903.890, 1280.135 1901.917, 1277.809 1902.106 C 1277.089 1902.165, 1274.475 1903.263, 1272 1904.547 M 1140 1949.363 C 1121.933 1956.411, 1105.175 1966.811, 1094.661 1977.500 C 1091.469 1980.745, 1086 1988.827, 1086 1990.299 C 1086 1990.798, 1089.182 1988.347, 1093.070 1984.853 C 1096.959 1981.359, 1100.897 1978.051, 1101.820 1977.503 C 1102.744 1976.954, 1104.850 1975.590, 1106.500 1974.472 C 1111.960 1970.772, 1128.618 1961, 1129.467 1961 C 1129.925 1961, 1132.595 1959.917, 1135.400 1958.594 C 1138.205 1957.271, 1143.763 1954.981, 1147.750 1953.506 C 1155.097 1950.787, 1155.555 1950.421, 1154.225 1948.329 C 1152.600 1945.775, 1148.418 1946.079, 1140 1949.363 M 950.166 1948.365 L 947.832 1949.660 950.452 1951.376 C 951.892 1952.320, 957.217 1954.674, 962.285 1956.607 C 979.919 1963.334, 996.324 1973.063, 1009.750 1984.758 C 1013.737 1988.231, 1017 1990.574, 1017 1989.965 C 1017 1987.580, 1011.400 1979.288, 1007.064 1975.251 C 999.034 1967.776, 973.534 1952.021, 969.437 1952.004 C 968.853 1952.002, 966.042 1950.875, 963.192 1949.500 C 957.464 1946.737, 953.694 1946.408, 950.166 1948.365 M 920.359 1975.823 C 901.581 1994.576, 891.600 2009.886, 884.915 2030.191 C 880.456 2043.735, 878.908 2053.020, 878.939 2066.026 C 878.996 2089.413, 886.226 2106.271, 904.093 2124.674 C 907.533 2128.217, 911.230 2131.588, 912.311 2132.166 C 914.051 2133.098, 914.211 2132.949, 913.719 2130.859 C 913.413 2129.561, 911.995 2125.426, 910.569 2121.670 C 904.850 2106.612, 904.840 2084.170, 910.544 2065.995 C 914.003 2054.971, 921.844 2039.724, 928.991 2030.125 C 936.688 2019.785, 948.049 2007.819, 953.757 2004.038 C 958.246 2001.064, 958.774 2000.954, 965.479 2001.586 C 969.629 2001.978, 973.242 2002.899, 974.315 2003.839 C 976.919 2006.119, 982.330 2017.954, 985.819 2029 C 997 2064.402, 993.069 2101.988, 975.638 2126.340 C 970.426 2133.621, 960.294 2143.540, 954.053 2147.472 L 949.606 2150.274 952.455 2152.546 C 955.342 2154.848, 958.083 2155.698, 965.740 2156.665 C 968.946 2157.069, 972.178 2156.420, 978.992 2154.003 C 992.054 2149.369, 998.656 2145.478, 1006.032 2138.065 C 1013.320 2130.740, 1017.398 2122.377, 1018.986 2111.500 C 1020.227 2103.001, 1019.775 2026.118, 1018.479 2025.213 C 1017.917 2024.821, 1016.117 2022.414, 1014.479 2019.865 C 1010.748 2014.060, 1001.907 2004.566, 996 2000.019 C 993.525 1998.114, 990.375 1995.586, 989 1994.401 C 987.625 1993.216, 984.407 1991.100, 981.850 1989.699 C 979.292 1988.297, 975.467 1986.077, 973.350 1984.765 C 968.545 1981.787, 961.689 1978.597, 952 1974.833 C 947.875 1973.230, 943.248 1971.228, 941.718 1970.384 C 940.188 1969.540, 936.571 1968.605, 933.682 1968.307 L 928.429 1967.764 920.359 1975.823 M 1163 1969.897 C 1160.525 1970.905, 1155.800 1972.755, 1152.500 1974.008 C 1141.355 1978.241, 1128.549 1985.011, 1119 1991.718 C 1109.485 1998.401, 1089.446 2017.581, 1085.896 2023.402 C 1084.127 2026.304, 1084.009 2029.027, 1084.024 2066.500 C 1084.033 2088.500, 1084.461 2109.410, 1084.975 2112.966 C 1086.094 2120.710, 1091.277 2131.585, 1097.001 2138.199 C 1100.328 2142.042, 1112.143 2149.932, 1117.478 2151.872 C 1118.040 2152.076, 1119.850 2152.822, 1121.500 2153.530 C 1131.906 2157.995, 1143.653 2157.491, 1151.750 2152.231 C 1153.834 2150.878, 1155.124 2148.187, 1153.085 2149.447 C 1152.582 2149.758, 1152.020 2149.636, 1151.835 2149.176 C 1151.651 2148.717, 1149.084 2146.724, 1146.131 2144.749 C 1138.581 2139.700, 1127.188 2126.528, 1122.805 2117.783 C 1116.110 2104.425, 1112.047 2085.716, 1112.017 2068.115 C 1111.972 2040.789, 1122.377 2007.685, 1132.758 2002.129 C 1136.676 2000.033, 1145.778 2001.745, 1151.735 2005.700 C 1166.859 2015.738, 1184.208 2040.437, 1191.985 2063 C 1199.591 2085.066, 1199.806 2105.789, 1192.632 2125.463 C 1191.236 2129.293, 1190.237 2132.571, 1190.413 2132.747 C 1190.589 2132.923, 1195.241 2128.781, 1200.751 2123.542 C 1208.818 2115.872, 1211.549 2112.506, 1214.778 2106.258 C 1222.268 2091.765, 1226.781 2073.265, 1225.686 2061.543 C 1224.131 2044.903, 1217.446 2022.977, 1209.829 2009.538 C 1202.785 1997.109, 1198.370 1991.396, 1186.112 1978.853 C 1176.069 1968.575, 1175.286 1967.995, 1171.500 1968.029 C 1169.300 1968.049, 1165.475 1968.890, 1163 1969.897 M 956.434 2029.867 C 939.065 2046.352, 925 2075.732, 925 2095.528 C 925 2102.569, 928.294 2114.583, 932.739 2123.750 C 935.891 2130.252, 936.551 2131, 939.127 2131 C 940.707 2131, 942 2130.633, 942 2130.184 C 942 2129.735, 943.703 2128.411, 945.784 2127.242 C 958.335 2120.188, 968.127 2103.061, 972 2081.389 C 973.860 2070.979, 972.814 2054.780, 969.489 2042.500 C 967.999 2037, 966.568 2031.600, 966.308 2030.500 C 966.048 2029.400, 964.830 2027.754, 963.602 2026.842 C 961.438 2025.236, 961.214 2025.331, 956.434 2029.867 M 1140.514 2026.984 C 1138.338 2029.389, 1134.565 2041.353, 1132.438 2052.595 C 1130.467 2063.009, 1130.959 2079.787, 1133.519 2089.489 C 1135.864 2098.375, 1143.121 2112.844, 1147.957 2118.272 C 1154.018 2125.075, 1163.625 2132.254, 1165.761 2131.576 C 1168.176 2130.809, 1169.369 2128.641, 1174.181 2116.270 C 1178.159 2106.044, 1178.369 2104.970, 1178.352 2095 C 1178.329 2081.982, 1176.196 2074.355, 1167.861 2057.491 C 1163.212 2048.086, 1160.111 2043.402, 1153.557 2035.885 C 1148.955 2030.606, 1144.514 2026.027, 1143.689 2025.711 C 1142.863 2025.394, 1141.435 2025.967, 1140.514 2026.984 M 1960.290 2030.020 C 1956.827 2033.406, 1953.949 2039.008, 1951.527 2047.072 C 1950.631 2050.057, 1948.762 2055.875, 1947.373 2060 C 1945.985 2064.125, 1941.680 2077.175, 1937.807 2089 C 1933.933 2100.825, 1928.762 2116.350, 1926.316 2123.500 C 1918.293 2146.948, 1917.851 2149.097, 1918.193 2163 C 1918.489 2175.053, 1918.632 2175.776, 1922.191 2183.230 C 1928.357 2196.141, 1939.235 2205.901, 1953.093 2210.954 C 1958.701 2212.998, 1960.634 2213.201, 1969.963 2212.724 C 1984.091 2212.001, 1993.744 2208.062, 2004.815 2198.500 C 2008.257 2195.527, 2015.581 2183.277, 2017.670 2177 C 2019.015 2172.958, 2019.488 2168.585, 2019.456 2160.500 L 2019.412 2149.500 2008.120 2115.500 C 1980.591 2032.610, 1981.834 2035.890, 1975.901 2030.529 C 1970.603 2025.743, 1964.857 2025.555, 1960.290 2030.020 M 1967.643 2063.769 C 1966.145 2066.193, 1953.008 2105.766, 1953.004 2107.867 C 1953.001 2109.853, 1953.362 2110.126, 1955.250 2109.565 C 1959.963 2108.166, 1973.703 2107.747, 1977.186 2108.896 C 1979.116 2109.533, 1981.477 2109.754, 1982.432 2109.388 C 1984.816 2108.473, 1984.164 2105.448, 1976.858 2083.500 C 1971.126 2066.280, 1968.959 2061.640, 1967.643 2063.769 M 1540.250 2079.645 C 1539.350 2080.021, 1539 2083.478, 1539 2092.002 C 1539 2098.511, 1539.273 2104.548, 1539.607 2105.418 C 1540.106 2106.719, 1542.045 2107, 1550.517 2107 L 1560.820 2107 1561.489 2098.750 C 1561.857 2094.213, 1562.010 2088.025, 1561.829 2085 L 1561.500 2079.500 1551.500 2079.312 C 1546 2079.209, 1540.938 2079.359, 1540.250 2079.645 M 1581.439 2080.299 C 1581.162 2081.021, 1581.062 2087.211, 1581.218 2094.055 L 1581.500 2106.500 1654.279 2106.757 C 1722.893 2106.998, 1727.099 2106.913, 1727.779 2105.257 C 1728.175 2104.290, 1728.500 2098.100, 1728.500 2091.500 L 1728.500 2079.500 1655.221 2079.244 C 1595.493 2079.034, 1581.849 2079.230, 1581.439 2080.299 M 1748.667 2079.667 C 1748.300 2080.033, 1748 2086.349, 1748 2093.700 L 1748 2107.068 1758.750 2106.784 L 1769.500 2106.500 1769.778 2092.750 L 1770.056 2079 1759.695 2079 C 1753.996 2079, 1749.033 2079.300, 1748.667 2079.667 M 1542.500 2127.878 L 1539.500 2128.520 1539.500 2297.010 L 1539.500 2465.500 1550.369 2465.500 L 1561.238 2465.500 1561.369 2297.200 C 1561.451 2192.054, 1561.144 2128.543, 1560.550 2127.950 C 1559.507 2126.907, 1547.268 2126.859, 1542.500 2127.878 M 1749.747 2127.690 C 1748.084 2128.124, 1748.007 2136.793, 1748.247 2296.824 L 1748.500 2465.500 1759.198 2465.783 L 1769.897 2466.067 1770.600 2462.321 C 1770.986 2460.261, 1771.013 2447.309, 1770.660 2433.538 C 1770.307 2419.767, 1770.014 2345.162, 1770.009 2267.750 L 1770 2127 1760.750 2127.116 C 1755.662 2127.180, 1750.711 2127.438, 1749.747 2127.690 M 1966 2128.713 C 1962.235 2129.216, 1954.568 2131.273, 1954 2131.932 C 1953.725 2132.252, 1951.409 2134.085, 1948.854 2136.006 C 1942.728 2140.613, 1940.433 2144.139, 1938.321 2152.193 C 1934.697 2166.010, 1940.136 2179.467, 1952.202 2186.539 C 1957.671 2189.744, 1958.728 2190, 1966.516 2190 C 1986.838 2190, 2000 2178.264, 2000 2160.144 C 2000 2150.605, 1997.603 2144.473, 1991.483 2138.352 C 1988.539 2135.408, 1985.426 2133, 1984.565 2133 C 1983.704 2133, 1983 2132.622, 1983 2132.160 C 1983 2130.395, 1971.246 2128.012, 1966 2128.713 M 1960.411 2143.891 C 1947.940 2151.496, 1948.281 2169.511, 1961.018 2176.009 C 1966.795 2178.956, 1971.755 2178.597, 1977.458 2174.820 C 1982.997 2171.151, 1985.944 2165.761, 1985.978 2159.239 C 1986.003 2154.321, 1982.658 2146.462, 1980.187 2145.636 C 1979.259 2145.326, 1976.700 2144.387, 1974.500 2143.551 C 1969.105 2141.500, 1964.136 2141.620, 1960.411 2143.891 M 1011.261 2161.073 C 1005.153 2165.795, 1004.564 2167.828, 1009.674 2166.546 C 1011.391 2166.115, 1012.844 2166.454, 1014.080 2167.573 C 1017.272 2170.462, 1019 2168.712, 1019 2162.590 C 1019 2159.581, 1018.663 2156.923, 1018.250 2156.684 C 1017.837 2156.445, 1014.693 2158.420, 1011.261 2161.073 M 1084 2162.531 C 1084 2169.196, 1084.980 2169.829, 1092.275 2167.879 C 1097.612 2166.452, 1098.471 2165.222, 1095.331 2163.500 C 1094.328 2162.950, 1091.866 2161.262, 1089.860 2159.750 C 1087.854 2158.238, 1085.714 2157, 1085.106 2157 C 1084.431 2157, 1084 2159.157, 1084 2162.531 M 1042.042 2194.470 C 1043.692 2196.120, 1056.360 2197.629, 1060.287 2196.643 C 1061.658 2196.299, 1063.040 2195.338, 1063.358 2194.509 C 1063.854 2193.217, 1062.258 2193, 1052.254 2193 C 1041.974 2193, 1040.748 2193.177, 1042.042 2194.470 M 997 2266.151 C 991.304 2267.337, 988.721 2268.579, 982.500 2273.119 C 964.049 2286.585, 962.568 2302.108, 977.329 2327.335 C 979.529 2331.094, 982.353 2334.840, 983.605 2335.661 C 985.695 2337.030, 986.249 2336.938, 990.333 2334.545 C 997.180 2330.532, 997.043 2328.289, 989.209 2316.190 C 984.463 2308.860, 980.539 2297.973, 981.403 2294.531 C 982.296 2290.973, 986.732 2286.183, 991.376 2283.762 C 994.873 2281.939, 997.248 2281.604, 1007 2281.556 L 1018.500 2281.500 1019.046 2290.500 C 1019.676 2300.875, 1020.542 2303.307, 1025.153 2307.659 C 1031.502 2313.652, 1034.145 2314.158, 1057.500 2313.844 C 1081.157 2313.526, 1081.271 2313.554, 1088.075 2321.500 C 1089.959 2323.700, 1091.838 2325.650, 1092.250 2325.833 C 1092.662 2326.017, 1093 2326.998, 1093 2328.014 C 1093 2329.621, 1092.579 2329.740, 1089.757 2328.930 C 1083.729 2327.201, 1063.222 2327.849, 1054.500 2330.044 C 1044.171 2332.643, 1039.872 2334.109, 1037.934 2335.695 C 1035.751 2337.482, 1030.256 2338.440, 1028.752 2337.297 C 1028.064 2336.773, 1025.319 2335.538, 1022.654 2334.553 C 1015.833 2332.031, 1010.474 2332.888, 1001.854 2337.879 C 997.939 2340.145, 993.905 2342, 992.890 2342 C 991.875 2342, 988.599 2340.677, 985.610 2339.060 C 982.240 2337.236, 977.861 2335.857, 974.083 2335.430 C 968.593 2334.809, 967.609 2334.993, 964.128 2337.297 C 962.004 2338.702, 957.888 2342.586, 954.983 2345.926 C 952.077 2349.267, 949.275 2352, 948.755 2352 C 948.236 2352, 944.763 2348.738, 941.038 2344.750 C 933.956 2337.168, 926.235 2332.368, 916.555 2329.529 C 909.812 2327.551, 892.595 2327.911, 888.500 2330.115 C 886.850 2331.003, 883.475 2332.689, 881 2333.861 C 871.119 2338.539, 863.140 2344.101, 856.897 2350.662 C 848.181 2359.821, 847.464 2362.022, 851.597 2366.933 C 854.144 2369.960, 854.351 2370.015, 862.347 2369.796 C 872.194 2369.526, 878.991 2372.179, 881.707 2377.352 C 884.435 2382.545, 883.802 2394.526, 880.144 2406.976 C 877.341 2416.515, 877.199 2417.655, 878.556 2419.726 C 880.209 2422.248, 884.016 2422.705, 888.664 2420.938 C 890.201 2420.353, 902.396 2409.023, 915.764 2395.758 C 937.304 2374.386, 940.239 2371.811, 941.561 2373.132 C 942.683 2374.255, 943.290 2378.932, 944.016 2392.062 C 944.546 2401.653, 945.241 2412.200, 945.561 2415.500 C 945.881 2418.800, 946.323 2429.797, 946.544 2439.937 C 947.007 2461.205, 947.162 2461.627, 953.761 2459.678 C 961.170 2457.491, 961.340 2456.791, 959.823 2434.727 C 958.302 2412.624, 958.358 2373.968, 959.923 2365.358 C 960.546 2361.934, 961.753 2358.865, 962.830 2357.973 C 963.843 2357.132, 968.207 2355.851, 972.528 2355.125 C 981.624 2353.597, 982.547 2354.128, 983.404 2361.385 C 983.671 2363.648, 984.354 2369.325, 984.921 2374 C 988.237 2401.311, 988.736 2438.940, 985.974 2453.382 C 985.356 2456.618, 985.117 2460.330, 985.444 2461.632 C 985.969 2463.726, 986.614 2464, 991.019 2464 C 997.886 2464, 999.618 2462.064, 1000.560 2453.339 C 1001.690 2442.865, 1000.242 2392.926, 998.506 2382.500 C 997.682 2377.550, 997.006 2370.955, 997.004 2367.844 L 997 2362.188 1002.250 2358.405 C 1012.475 2351.037, 1014.310 2350, 1017.116 2350 C 1019.042 2350, 1020.482 2350.806, 1021.597 2352.508 C 1023.105 2354.808, 1023.143 2358.684, 1022.058 2399.433 C 1021.118 2434.718, 1021.131 2444.704, 1022.119 2448.002 C 1025.763 2460.165, 1045.225 2464.505, 1061.924 2456.877 C 1074.147 2451.293, 1090.608 2435.652, 1098.629 2422 C 1105.234 2410.756, 1107.171 2404.821, 1107.287 2395.462 C 1107.375 2388.427, 1106.996 2386.589, 1104.254 2380.728 C 1097.836 2367.013, 1090.467 2361.452, 1078 2360.914 C 1061.826 2360.216, 1054.665 2365.947, 1054.786 2379.492 C 1054.965 2399.348, 1066.016 2404.727, 1083.566 2393.501 C 1090.906 2388.806, 1092.399 2389.322, 1091.525 2396.254 C 1089.171 2414.922, 1078.764 2429.258, 1060.961 2438.358 C 1047.389 2445.295, 1038.334 2445.639, 1035.927 2439.309 C 1034.727 2436.153, 1036.577 2356.659, 1037.908 2354.172 C 1038.402 2353.250, 1043.686 2350.701, 1049.653 2348.508 C 1060.465 2344.533, 1060.547 2344.520, 1075 2344.542 C 1087.492 2344.561, 1090.192 2344.857, 1094.500 2346.680 C 1112.499 2354.297, 1115.391 2354.571, 1118.406 2348.940 C 1121.057 2343.989, 1120.018 2340.560, 1115.109 2338.056 C 1110.625 2335.768, 1109.842 2333.372, 1111.177 2326.026 C 1112.314 2319.770, 1110.300 2311.393, 1106.442 2306.336 C 1103.159 2302.031, 1094.634 2298, 1088.812 2298 C 1085.557 2298, 1083.582 2297.169, 1079.492 2294.082 C 1068.611 2285.867, 1051.595 2276.537, 1043 2274.074 C 1040.525 2273.365, 1036.925 2272.215, 1035 2271.519 C 1029.549 2269.548, 1022.308 2268, 1018.534 2268 C 1016.644 2268, 1012.506 2267.325, 1009.339 2266.500 C 1002.947 2264.835, 1003.275 2264.844, 997 2266.151 M 1033.966 2289.541 C 1032.157 2291.721, 1033.626 2295.605, 1036.737 2296.868 C 1039.731 2298.083, 1050.814 2298.110, 1051.559 2296.904 C 1051.811 2296.497, 1049.200 2294.740, 1045.758 2292.998 C 1036.233 2288.179, 1035.319 2287.911, 1033.966 2289.541 M 1313.301 2315.016 C 1305.009 2319.247, 1302.846 2329.439, 1308.822 2336.127 C 1311.239 2338.832, 1312.357 2339.238, 1319.018 2339.832 L 1326.500 2340.500 1326.173 2343.500 C 1325.696 2347.878, 1322.388 2353.196, 1318.470 2355.880 C 1312.498 2359.972, 1309.878 2363.158, 1310.201 2365.935 C 1310.433 2367.928, 1311.140 2368.573, 1313.371 2368.828 C 1318.039 2369.362, 1320.580 2368.263, 1326.960 2362.954 C 1337.282 2354.363, 1342.608 2341.493, 1340.063 2331.289 C 1338.665 2325.684, 1335.220 2319.461, 1331.689 2316.164 C 1327.980 2312.700, 1318.944 2312.136, 1313.301 2315.016 M 789.821 2320.310 C 786.147 2321.528, 782.809 2322.857, 782.404 2323.263 C 781.998 2323.668, 780.894 2324, 779.950 2324 C 778.203 2324, 771 2331.215, 771 2332.965 C 771 2333.493, 771.932 2336.417, 773.072 2339.462 C 774.929 2344.425, 775.444 2345, 778.036 2345 C 779.627 2345, 782.919 2343.889, 785.352 2342.531 C 794.346 2337.509, 804.674 2334.826, 817.240 2334.248 C 825.384 2333.872, 829 2334.040, 829 2334.794 C 829 2335.393, 826.188 2338.009, 822.750 2340.608 C 812.641 2348.251, 799.325 2363.123, 793.747 2373 C 787.107 2384.756, 784.560 2400.735, 786.598 2417.845 C 787.845 2428.323, 788.463 2430.460, 792.708 2439 C 798.714 2451.085, 805.931 2458.708, 814.344 2461.856 C 821.239 2464.435, 822.637 2464.585, 830.437 2463.577 C 842.927 2461.962, 853.477 2454.510, 855.993 2445.526 C 858.548 2436.400, 855.356 2424.931, 849.593 2422.529 C 833.624 2415.874, 824.176 2418.416, 812.661 2432.468 C 810.465 2435.147, 810.057 2435.293, 808.449 2433.968 C 805.722 2431.719, 800.191 2418.767, 798.850 2411.489 C 797.372 2403.470, 798.582 2395.811, 802.662 2387.348 C 808.625 2374.980, 831.777 2355.080, 854 2343.220 C 861.268 2339.341, 862 2338.340, 862 2332.279 C 862 2324.751, 861.095 2323.555, 854.308 2322.115 C 851.113 2321.438, 845.511 2320.235, 841.857 2319.442 C 837.299 2318.453, 829.139 2318.015, 815.857 2318.047 C 798.624 2318.088, 795.767 2318.337, 789.821 2320.310 M 1256 2318.980 C 1254.744 2319.775, 1254.542 2322.743, 1254.758 2337.215 C 1254.989 2352.693, 1255.388 2363.304, 1257.667 2414.600 C 1258.055 2423.330, 1257.924 2428.929, 1257.324 2429.300 C 1256.791 2429.629, 1253.197 2427.559, 1249.336 2424.699 C 1245.475 2421.840, 1240.220 2418.274, 1237.658 2416.775 L 1233 2414.049 1232.982 2401.775 C 1232.947 2377.184, 1230.260 2365.341, 1222.685 2356.386 C 1217.206 2349.909, 1203.294 2345.339, 1191.892 2346.272 C 1173.510 2347.775, 1166.186 2351.207, 1159.847 2361.290 C 1157.029 2365.773, 1156.568 2367.407, 1156.547 2373 C 1156.518 2380.713, 1158.944 2385.690, 1165.199 2390.750 C 1168.894 2393.740, 1169.790 2394, 1176.373 2394 C 1187.311 2394, 1194.581 2389.468, 1197.093 2381.083 C 1198.695 2375.738, 1197.554 2370.879, 1193.429 2365.475 C 1191.511 2362.962, 1190.206 2360.476, 1190.529 2359.952 C 1192.379 2356.960, 1202.652 2361.539, 1209.279 2368.310 C 1217.943 2377.162, 1220.628 2385.654, 1219.680 2401.207 C 1218.589 2419.116, 1213.530 2429.134, 1201.516 2437.174 C 1194.756 2441.698, 1183.287 2446.010, 1178.033 2446.003 C 1175.046 2445.999, 1167.102 2443.168, 1164.921 2441.331 C 1164.053 2440.599, 1162.880 2440, 1162.314 2440 C 1160.300 2440, 1151.079 2429.749, 1147.183 2423.179 C 1137.350 2406.596, 1130.522 2384.658, 1129.107 2365.103 C 1128.559 2357.519, 1128.242 2356.514, 1125.837 2354.723 C 1122.887 2352.526, 1119.269 2352.874, 1116.524 2355.619 C 1114.172 2357.971, 1115.159 2376.545, 1118.537 2393.500 C 1122.508 2413.436, 1129.835 2427.547, 1143.521 2441.617 C 1152.125 2450.462, 1154.657 2452.434, 1161.428 2455.562 C 1168.250 2458.714, 1170.613 2459.278, 1178.927 2459.736 C 1199.743 2460.883, 1214.441 2453.963, 1224.687 2438.193 C 1226.583 2435.274, 1228.783 2432.637, 1229.575 2432.333 C 1231.238 2431.695, 1236.575 2434.033, 1239.510 2436.684 C 1240.616 2437.683, 1243.622 2440.191, 1246.189 2442.259 C 1248.757 2444.326, 1252.984 2449.215, 1255.582 2453.124 L 1260.306 2460.230 1264.903 2459.619 C 1273.555 2458.468, 1274.065 2455.928, 1271.949 2424.500 C 1270.772 2407.010, 1270.630 2366.453, 1271.739 2364.570 C 1273.026 2362.385, 1284.209 2352.924, 1289.722 2349.355 C 1296.036 2345.268, 1297.441 2343.062, 1295.894 2339.667 C 1294.536 2336.686, 1290.995 2334.667, 1287.127 2334.667 C 1284.551 2334.667, 1279.203 2337.335, 1273.494 2341.468 C 1269.847 2344.108, 1268.773 2342.041, 1268.245 2331.358 C 1267.905 2324.494, 1267.291 2320.968, 1266.223 2319.750 C 1264.551 2317.842, 1258.516 2317.387, 1256 2318.980 M 889.468 2348.016 C 885.123 2350.225, 881.237 2352.363, 880.833 2352.767 C 880.429 2353.171, 882.850 2356.650, 886.214 2360.498 C 892.645 2367.853, 895.375 2372.870, 896.553 2379.500 C 897.367 2384.085, 898.682 2387, 899.936 2387 C 901.245 2387, 931 2357.622, 931 2356.330 C 931 2354.821, 924.288 2349, 922.547 2349 C 921.787 2349, 918.924 2347.875, 916.187 2346.500 C 912.312 2344.554, 909.677 2344, 904.289 2344 C 898.189 2344, 896.432 2344.476, 889.468 2348.016 M 1171.934 2372.123 C 1169.542 2376.592, 1177.663 2382.548, 1180.625 2378.498 C 1182.389 2376.086, 1181.321 2374.204, 1176.913 2371.956 L 1173.072 2369.996 1171.934 2372.123 M 1070.126 2376.764 C 1068.912 2379.033, 1070.965 2382, 1073.749 2382 C 1076.735 2382, 1080.464 2378.651, 1079.698 2376.656 C 1078.787 2374.282, 1071.410 2374.365, 1070.126 2376.764 M 1790.068 2449.750 L 1790 2466 1796.941 2466 C 1800.759 2466, 1804.139 2465.584, 1804.453 2465.076 C 1804.767 2464.567, 1802.171 2458.380, 1798.684 2451.326 C 1795.198 2444.272, 1791.848 2437.375, 1791.240 2436 C 1790.374 2434.039, 1790.121 2437.005, 1790.068 2449.750 M 831.457 2436.857 C 827.849 2439.065, 824.639 2443.607, 825.595 2445.154 C 826.029 2445.856, 828.283 2446.044, 831.844 2445.677 C 836.056 2445.242, 837.847 2444.540, 839.185 2442.801 C 841.614 2439.644, 841.559 2436, 839.082 2436 C 838.027 2436, 836.564 2435.774, 835.832 2435.498 C 835.099 2435.222, 833.131 2435.834, 831.457 2436.857 M 1581.730 2436.603 C 1581.329 2437.005, 1581 2443.783, 1581 2451.667 L 1581 2466 1587.441 2466 C 1590.984 2466, 1594.131 2465.598, 1594.434 2465.106 C 1595.046 2464.116, 1593.511 2460.005, 1588.607 2449.500 C 1586.809 2445.650, 1584.691 2441.009, 1583.900 2439.186 C 1583.108 2437.364, 1582.132 2436.201, 1581.730 2436.603 M 1725.107 2441.491 C 1723.948 2444.111, 1723 2446.395, 1723 2446.568 C 1723 2446.740, 1721.200 2450.760, 1719 2455.500 C 1716.800 2460.240, 1715 2464.542, 1715 2465.059 C 1715 2466.439, 1726.391 2466.209, 1727.800 2464.800 C 1729.219 2463.381, 1729.471 2440.293, 1728.092 2438.114 C 1727.446 2437.094, 1726.658 2437.985, 1725.107 2441.491 M 1515.551 2442.750 C 1514.665 2445.363, 1511.951 2451.290, 1509.518 2455.923 C 1507.086 2460.556, 1505.326 2464.718, 1505.607 2465.173 C 1505.888 2465.628, 1509.016 2466, 1512.559 2466 L 1519 2466 1519 2452 C 1519 2444.149, 1518.596 2438, 1518.080 2438 C 1517.575 2438, 1516.436 2440.137, 1515.551 2442.750" stroke="none" fill="#000000" fill-rule="evenodd"/></svg>